<svg width="58" height="50" viewBox="0 0 58 50" fill="none" xmlns="http://www.w3.org/2000/svg">
<g clip-path="url(#clip0)">
<path d="M24.3338 8.45298L22.2663 5.26318C7.95224 14.9123 0 26.6348 0 36.2839C0 45.6141 6.83892 50 12.6441 50C19.9601 50 25.1291 43.7799 25.1291 37.2409C25.1291 31.7385 21.6301 27.0335 16.9383 25.2791C15.5864 24.8007 14.314 24.4019 14.314 22.0893C14.314 19.1388 16.4611 14.7528 24.3338 8.45298ZM55.9042 8.45298L53.8367 5.26318C39.6817 14.9123 31.5704 26.6348 31.5704 36.2839C31.5704 45.6141 38.5684 50 44.3735 50C51.7691 50 57.0175 43.7799 57.0175 37.2409C57.0175 31.7385 53.439 27.0335 48.5882 25.2791C47.2363 24.8007 46.0435 24.4019 46.0435 22.0893C46.0435 19.1388 48.2701 14.7528 55.9042 8.45298Z" fill="white"/>
</g>
<defs>
<clipPath id="clip0">
<rect width="57.0175" height="50" fill="white"/>
</clipPath>
</defs>
</svg>
