<svg id="eGJ5d2TNuIU1" xmlns="http://www.w3.org/2000/svg" xmlns:xlink="http://www.w3.org/1999/xlink" viewBox="0 0 420 443" shape-rendering="geometricPrecision" text-rendering="geometricPrecision"><path id="eGJ5d2TNuIU2" d="M237.51,84.28L237.51,68.58L225.75,67.58C225.062,65.1246,224.089,62.7584,222.85,60.53L230.44,51.53L219.34,40.43L210.34,48.02C208.13,46.7761,205.78,45.7992,203.34,45.11L202.34,33.35L186.51,33.35L185.51,45.11C183.07,45.7992,180.72,46.7761,178.51,48.02L169.51,40.43L158.41,51.53L166,60.53C164.761,62.7584,163.787,65.1246,163.1,67.58L151.34,68.58L151.34,84.28L163.1,85.28C163.791,87.7182,164.764,90.0674,166,92.28L158.41,101.28L169.51,112.38L178.51,104.79C180.72,106.034,183.07,107.011,185.51,107.7L186.51,119.46L202.21,119.46L203.21,107.7C205.667,107.012,208.033,106.035,210.26,104.79L219.26,112.38L230.36,101.28L222.77,92.28C224.006,90.0674,224.979,87.7182,225.67,85.28L237.51,84.28ZM194.41,94.67C190.802,94.67,187.276,93.6003,184.276,91.596C181.277,89.5918,178.939,86.7431,177.558,83.4102C176.178,80.0772,175.817,76.4098,176.52,72.8716C177.224,69.3333,178.961,66.0833,181.512,63.5324C184.063,60.9815,187.313,59.2443,190.852,58.5405C194.39,57.8367,198.057,58.1979,201.39,59.5784C204.723,60.959,207.572,63.2969,209.576,66.2964C211.58,69.296,212.65,72.8225,212.65,76.43C212.649,78.8283,212.175,81.2029,211.255,83.4178C210.335,85.6328,208.988,87.6449,207.291,89.3389C205.593,91.0329,203.578,92.3756,201.361,93.2904C199.144,94.2051,196.768,94.6739,194.37,94.67L194.41,94.67Z" fill="none" stroke="rgb(57,65,65)" stroke-width="1" stroke-linecap="round" stroke-linejoin="round" stroke-miterlimit="1"/><path id="eGJ5d2TNuIU3" d="M406.2,237.73L406.2,230.21L400.56,229.72C400.228,228.544,399.762,227.41,399.17,226.34L402.81,222.01L397.51,216.69L393.19,220.33C392.122,219.734,390.988,219.268,389.81,218.94L389.32,213.3L381.79,213.3L381.31,218.94C380.132,219.266,378.997,219.733,377.93,220.33L373.6,216.69L368.28,222.01L371.92,226.34C371.321,227.407,370.851,228.542,370.52,229.72L364.88,230.21L364.88,237.73L370.52,238.22C370.851,239.398,371.321,240.533,371.92,241.6L368.25,245.89L373.57,251.21L377.9,247.57C378.967,248.168,380.102,248.634,381.28,248.96L381.76,254.6L389.29,254.6L389.78,248.96C390.958,248.632,392.092,248.166,393.16,247.57L397.48,251.21L402.81,245.89L399.17,241.56C399.762,240.49,400.228,239.356,400.56,238.18L406.2,237.73ZM385.53,242.73C383.799,242.732,382.106,242.22,380.666,241.26C379.226,240.3,378.103,238.934,377.439,237.335C376.775,235.737,376.6,233.977,376.937,232.279C377.273,230.581,378.106,229.021,379.329,227.796C380.553,226.572,382.112,225.737,383.809,225.399C385.507,225.06,387.267,225.233,388.866,225.895C390.466,226.557,391.833,227.679,392.795,229.118C393.757,230.557,394.27,232.249,394.27,233.98C394.269,235.129,394.041,236.267,393.6,237.328C393.159,238.389,392.514,239.353,391.7,240.164C390.887,240.976,389.921,241.619,388.859,242.058C387.797,242.496,386.659,242.721,385.51,242.72L385.53,242.73Z" fill="none" stroke="rgb(57,65,65)" stroke-width="1" stroke-linecap="round" stroke-linejoin="round" stroke-miterlimit="1"/><path id="eGJ5d2TNuIU4" d="M400.51,100.69C401.308,97.234,401.198,93.63,400.189,90.2294C399.18,86.8288,397.307,83.7477,394.753,81.2863C392.199,78.8248,389.051,77.0672,385.615,76.1845C382.18,75.3019,378.574,75.3245,375.15,76.25C373.064,72.5508,369.838,69.6247,365.954,67.908C362.069,66.1913,357.734,65.7759,353.594,66.7238C349.454,67.6716,345.731,69.9319,342.981,73.1677C340.23,76.4035,338.599,80.4416,338.33,84.68C336.153,84.2638,333.914,84.3019,331.753,84.7921C329.592,85.2823,327.555,86.2139,325.771,87.5285C323.987,88.8431,322.494,90.5123,321.385,92.4313C320.277,94.3503,319.577,96.4777,319.33,98.68C317.101,98.9145,315.04,99.9722,313.55,101.646C312.059,103.32,311.247,105.49,311.272,107.731C311.297,109.972,312.157,112.123,313.685,113.764C315.212,115.404,317.296,116.415,319.53,116.6L394.81,116.6C396.653,116.586,398.448,116.007,399.952,114.94C401.455,113.874,402.595,112.371,403.217,110.636C403.838,108.9,403.912,107.016,403.428,105.237C402.944,103.458,401.925,101.871,400.51,100.69L400.51,100.69Z" fill="none" stroke="rgb(57,65,65)" stroke-width="1" stroke-linecap="round" stroke-linejoin="round" stroke-miterlimit="1"/><path id="eGJ5d2TNuIU5" d="M359.14,109.72L359.14,130.47" fill="none" stroke="rgb(57,65,65)" stroke-width="1" stroke-linecap="round" stroke-linejoin="round" stroke-miterlimit="1"/><path id="eGJ5d2TNuIU6" d="M359.14,97.27L359.14,105.57" fill="none" stroke="rgb(57,65,65)" stroke-width="1" stroke-linecap="round" stroke-linejoin="round" stroke-miterlimit="1"/><path id="eGJ5d2TNuIU7" d="M359.14,89.52L359.14,93.95" fill="none" stroke="rgb(57,65,65)" stroke-width="1" stroke-linecap="round" stroke-linejoin="round" stroke-miterlimit="1"/><path id="eGJ5d2TNuIU8" d="M355.22,128.04L359.14,132.89L363.06,128.04" fill="none" stroke="rgb(57,65,65)" stroke-width="1" stroke-linecap="round" stroke-linejoin="round" stroke-miterlimit="1"/><path id="eGJ5d2TNuIU9" d="M171.15,344.04C171.946,340.583,171.834,336.979,170.823,333.579C169.813,330.179,167.939,327.098,165.384,324.637C162.83,322.176,159.681,320.419,156.246,319.536C152.81,318.653,149.205,318.675,145.78,319.6C143.696,315.898,140.47,312.969,136.585,311.251C132.699,309.533,128.363,309.118,124.222,310.068C120.081,311.017,116.358,313.28,113.609,316.519C110.861,319.759,109.233,323.8,108.97,328.04C107.981,327.851,106.977,327.754,105.97,327.75C102.014,327.747,98.1955,329.202,95.2441,331.836C92.2926,334.47,90.415,338.099,89.97,342.03C87.741,342.263,85.6793,343.32,84.1883,344.993C82.6972,346.666,81.8839,348.836,81.9077,351.077C81.9315,353.318,82.7905,355.469,84.3167,357.11C85.843,358.751,87.9266,359.764,90.16,359.95L165.51,359.95C167.351,359.93,169.141,359.347,170.64,358.278C172.139,357.209,173.274,355.706,173.892,353.972C174.51,352.238,174.581,350.356,174.096,348.58C173.611,346.804,172.594,345.219,171.18,344.04L171.15,344.04Z" fill="none" stroke="rgb(57,65,65)" stroke-width="1" stroke-linecap="round" stroke-linejoin="round" stroke-miterlimit="1"/><path id="eGJ5d2TNuIU10" d="M129.75,356.04L129.75,335.29" fill="none" stroke="rgb(57,65,65)" stroke-width="1" stroke-linecap="round" stroke-linejoin="round" stroke-miterlimit="1"/><path id="eGJ5d2TNuIU11" d="M129.75,368.49L129.75,360.19" fill="none" stroke="rgb(57,65,65)" stroke-width="1" stroke-linecap="round" stroke-linejoin="round" stroke-miterlimit="1"/><path id="eGJ5d2TNuIU12" d="M129.75,376.24L129.75,371.8" fill="none" stroke="rgb(57,65,65)" stroke-width="1" stroke-linecap="round" stroke-linejoin="round" stroke-miterlimit="1"/><path id="eGJ5d2TNuIU13" d="M133.66,337.72L129.75,332.87L125.83,337.72" fill="none" stroke="rgb(57,65,65)" stroke-width="1" stroke-linecap="round" stroke-linejoin="round" stroke-miterlimit="1"/><rect id="eGJ5d2TNuIU14" width="263" height="185" rx="0" ry="0" transform="matrix(1 0 0 1 26 108)" fill="rgb(217,242,207)" stroke="none" stroke-width="1" stroke-miterlimit="1"/><path id="eGJ5d2TNuIU15" d="M12,80.78L263.44,80.78C264.561,80.78,265.637,81.2239,266.431,82.0148C267.226,82.8056,267.675,83.8789,267.68,85L267.68,96.87L7.75,96.87L7.75,85C7.75529,83.8772,8.20571,82.8024,9.00246,82.0112C9.7992,81.2201,10.8772,80.7773,12,80.78L12,80.78Z" fill="rgb(57,65,65)" stroke="rgb(57,65,65)" stroke-width="1" stroke-linecap="round" stroke-linejoin="round" stroke-miterlimit="1"/><path id="eGJ5d2TNuIU16" d="M281.83,99.85L19.12,99.85L19.12,284.72L281.83,284.72L281.83,99.85Z" fill="rgb(255,255,255)" stroke="rgb(57,65,65)" stroke-width="1" stroke-linecap="round" stroke-linejoin="round" stroke-miterlimit="1"/><path id="eGJ5d2TNuIU17" d="M285.86,88.83C285.86,89.6211,285.625,90.3945,285.186,91.0523C284.746,91.7101,284.122,92.2228,283.391,92.5255C282.66,92.8283,281.856,92.9075,281.08,92.7531C280.304,92.5988,279.591,92.2178,279.032,91.6584C278.472,91.099,278.091,90.3863,277.937,89.6103C277.783,88.8344,277.862,88.0302,278.164,87.2992C278.467,86.5683,278.98,85.9436,279.638,85.5041C280.296,85.0646,281.069,84.83,281.86,84.83C282.921,84.83,283.938,85.2514,284.688,86.0016C285.439,86.7517,285.86,87.7691,285.86,88.83Z" fill="rgb(255,255,255)" stroke="rgb(57,65,65)" stroke-width="1" stroke-linecap="round" stroke-linejoin="round" stroke-miterlimit="1"/><path id="eGJ5d2TNuIU18" d="M271.7,88.83C271.7,89.6211,271.465,90.3945,271.026,91.0523C270.586,91.7101,269.962,92.2228,269.231,92.5255C268.5,92.8283,267.696,92.9075,266.92,92.7531C266.144,92.5988,265.431,92.2178,264.872,91.6584C264.312,91.099,263.931,90.3863,263.777,89.6103C263.622,88.8344,263.702,88.0302,264.004,87.2992C264.307,86.5683,264.82,85.9436,265.478,85.5041C266.135,85.0646,266.909,84.83,267.7,84.83C268.761,84.83,269.778,85.2514,270.528,86.0016C271.279,86.7517,271.7,87.7691,271.7,88.83Z" fill="rgb(255,255,255)" stroke="rgb(57,65,65)" stroke-width="1" stroke-linecap="round" stroke-linejoin="round" stroke-miterlimit="1"/><path id="eGJ5d2TNuIU19" d="M257.51,88.83C257.51,89.6211,257.275,90.3945,256.836,91.0523C256.396,91.7101,255.772,92.2228,255.041,92.5255C254.31,92.8283,253.506,92.9075,252.73,92.7531C251.954,92.5988,251.241,92.2178,250.682,91.6584C250.122,91.099,249.741,90.3863,249.587,89.6103C249.433,88.8344,249.512,88.0302,249.814,87.2992C250.117,86.5683,250.63,85.9436,251.288,85.5041C251.946,85.0646,252.719,84.83,253.51,84.83C254.571,84.83,255.588,85.2514,256.338,86.0016C257.089,86.7517,257.51,87.7691,257.51,88.83Z" fill="rgb(255,255,255)" stroke="rgb(57,65,65)" stroke-width="1" stroke-linecap="round" stroke-linejoin="round" stroke-miterlimit="1"/><path id="eGJ5d2TNuIU20" d="M273.88,107.78L263.47,107.78" fill="none" stroke="rgb(57,65,65)" stroke-width="2" stroke-linecap="round" stroke-linejoin="round" stroke-miterlimit="1"/><path id="eGJ5d2TNuIU21" d="M273.88,112L263.47,112" fill="none" stroke="rgb(57,65,65)" stroke-width="2" stroke-linecap="round" stroke-linejoin="round" stroke-miterlimit="1"/><path id="eGJ5d2TNuIU22" d="M273.88,116.22L263.47,116.22" fill="none" stroke="rgb(57,65,65)" stroke-width="2" stroke-linecap="round" stroke-linejoin="round" stroke-miterlimit="1"/><path id="eGJ5d2TNuIU23" d="M37.32,216.86L116.05,216.86" fill="none" stroke="rgb(57,65,65)" stroke-width="2" stroke-linecap="round" stroke-linejoin="round" stroke-miterlimit="1"/><path id="eGJ5d2TNuIU24" d="M37.32,223.07L116.05,223.07" fill="none" stroke="rgb(57,65,65)" stroke-width="2" stroke-linecap="round" stroke-linejoin="round" stroke-miterlimit="1"/><path id="eGJ5d2TNuIU25" d="M37.32,229.4L99.39,229.4" fill="none" stroke="rgb(57,65,65)" stroke-width="2" stroke-linecap="round" stroke-linejoin="round" stroke-miterlimit="1"/><path id="eGJ5d2TNuIU26" d="M204.27,101.94L204.27,102.44" fill="none" stroke="rgb(57,65,65)" stroke-width="1" stroke-linecap="round" stroke-linejoin="round" stroke-miterlimit="1"/><path id="eGJ5d2TNuIU27" d="M204.27,105.43L204.27,279.66" fill="none" stroke="rgb(57,65,65)" stroke-width="1" stroke-linecap="round" stroke-linejoin="round" stroke-miterlimit="1" stroke-dasharray="1,3"/><path id="eGJ5d2TNuIU28" d="M204.27,281.16L204.27,281.66" fill="none" stroke="rgb(57,65,65)" stroke-width="1" stroke-linecap="round" stroke-linejoin="round" stroke-miterlimit="1"/><path id="eGJ5d2TNuIU29" d="M22.29,243.26L22.79,243.26" fill="none" stroke="rgb(57,65,65)" stroke-width="1" stroke-linecap="round" stroke-linejoin="round" stroke-miterlimit="1"/><path id="eGJ5d2TNuIU30" d="M25.78,243.26L275.82,243.26" fill="none" stroke="rgb(57,65,65)" stroke-width="1" stroke-linecap="round" stroke-linejoin="round" stroke-miterlimit="1" stroke-dasharray="1,2.99"/><path id="eGJ5d2TNuIU31" d="M277.31,243.26L277.81,243.26" fill="none" stroke="rgb(57,65,65)" stroke-width="1" stroke-linecap="round" stroke-linejoin="round" stroke-miterlimit="1"/><path id="eGJ5d2TNuIU32" d="M205.99,241.54L202.54,241.54L202.54,244.99L205.99,244.99L205.99,241.54Z" fill="rgb(255,255,255)" stroke="rgb(57,65,65)" stroke-width="1" stroke-linecap="round" stroke-linejoin="round" stroke-miterlimit="1"/><path id="eGJ5d2TNuIU33" d="M105.37,272.48L51.71,272.48L51.71,306.11L105.37,306.11L105.37,272.48Z" fill="rgb(57,65,65)" stroke="rgb(57,65,65)" stroke-width="1" stroke-linecap="round" stroke-linejoin="round" stroke-miterlimit="1"/><path id="eGJ5d2TNuIU34" d="M105.37,272.48L51.71,272.48L51.71,277.59L105.37,277.59L105.37,272.48Z" fill="rgb(91,180,98)" stroke="rgb(57,65,65)" stroke-width="1" stroke-linecap="round" stroke-linejoin="round" stroke-miterlimit="1"/><path id="eGJ5d2TNuIU35" d="M57.19,281.9L70.9,281.9" fill="none" stroke="rgb(255,255,255)" stroke-width="1" stroke-linecap="round" stroke-linejoin="round" stroke-miterlimit="1"/><path id="eGJ5d2TNuIU36" d="M64.04,285.73L87.78,285.73" fill="none" stroke="rgb(255,255,255)" stroke-width="1" stroke-linecap="round" stroke-linejoin="round" stroke-miterlimit="1"/><path id="eGJ5d2TNuIU37" d="M61.01,289.29L68,289.29" fill="none" stroke="rgb(255,255,255)" stroke-width="1" stroke-linecap="round" stroke-linejoin="round" stroke-miterlimit="1"/><path id="eGJ5d2TNuIU38" d="M64.04,293.51L80.03,293.51" fill="none" stroke="rgb(255,255,255)" stroke-width="1" stroke-linecap="round" stroke-linejoin="round" stroke-miterlimit="1"/><path id="eGJ5d2TNuIU39" d="M57.19,297.33L70.9,297.33" fill="none" stroke="rgb(255,255,255)" stroke-width="1" stroke-linecap="round" stroke-linejoin="round" stroke-miterlimit="1"/><path id="eGJ5d2TNuIU40" d="M190.5,210.12L144.43,210.12" fill="none" stroke="rgb(57,65,65)" stroke-width="1" stroke-linecap="round" stroke-linejoin="round" stroke-miterlimit="1"/><path id="eGJ5d2TNuIU41" d="M191.39,231.43C191.39,231.43,191.39,210.02,167.47,210.02C143.55,210.02,143.51,231.43,143.51,231.43" fill="none" stroke="rgb(57,65,65)" stroke-width="1" stroke-linecap="round" stroke-linejoin="round" stroke-miterlimit="1"/><path id="eGJ5d2TNuIU42" d="M191.39,233.44C192.506,233.44,193.41,232.536,193.41,231.42C193.41,230.304,192.506,229.4,191.39,229.4C190.274,229.4,189.37,230.304,189.37,231.42C189.37,232.536,190.274,233.44,191.39,233.44Z" fill="rgb(91,180,98)" stroke="rgb(57,65,65)" stroke-width="1" stroke-linecap="round" stroke-linejoin="round" stroke-miterlimit="1"/><path id="eGJ5d2TNuIU43" d="M141.51,231.43C141.51,231.034,141.627,230.648,141.847,230.319C142.067,229.99,142.379,229.734,142.745,229.582C143.11,229.431,143.512,229.391,143.9,229.468C144.288,229.546,144.645,229.736,144.924,230.016C145.204,230.295,145.394,230.652,145.472,231.04C145.549,231.428,145.509,231.83,145.358,232.195C145.206,232.561,144.95,232.873,144.621,233.093C144.292,233.313,143.906,233.43,143.51,233.43C142.98,233.43,142.471,233.219,142.096,232.844C141.721,232.469,141.51,231.96,141.51,231.43Z" fill="rgb(91,180,98)" stroke="rgb(57,65,65)" stroke-width="1" stroke-linecap="round" stroke-linejoin="round" stroke-miterlimit="1"/><path id="eGJ5d2TNuIU44" d="M189.61,211.79L193.15,211.79L193.15,208.25L189.61,208.25L189.61,211.79Z" fill="rgb(91,180,98)" stroke="rgb(57,65,65)" stroke-width="1" stroke-linecap="round" stroke-linejoin="round" stroke-miterlimit="1"/><path id="eGJ5d2TNuIU45" d="M165.7,211.79L169.24,211.79L169.24,208.25L165.7,208.25L165.7,211.79Z" fill="rgb(91,180,98)" stroke="rgb(57,65,65)" stroke-width="1" stroke-linecap="round" stroke-linejoin="round" stroke-miterlimit="1"/><path id="eGJ5d2TNuIU46" d="M141.78,211.79L145.32,211.79L145.32,208.25L141.78,208.25L141.78,211.79Z" fill="rgb(91,180,98)" stroke="rgb(57,65,65)" stroke-width="1" stroke-linecap="round" stroke-linejoin="round" stroke-miterlimit="1"/><path id="eGJ5d2TNuIU47" d="M65.94,145.76L65.94,138.68L60.65,138.23C60.336,137.124,59.8964,136.057,59.34,135.05L62.76,130.99L57.76,125.99L53.69,129.41C52.6869,128.846,51.6191,128.406,50.51,128.1L50.05,122.8L42.99,122.8L42.53,128.1C41.4236,128.405,40.359,128.845,39.36,129.41L35.29,125.99L30.29,130.99L33.71,135.05C33.1494,136.055,32.7097,137.122,32.4,138.23L27.1,138.68L27.1,145.76L32.4,146.21C32.7114,147.317,33.1511,148.385,33.71,149.39L30.29,153.45L35.29,158.45L39.36,155.03C40.3527,155.593,41.4105,156.033,42.51,156.34L42.97,161.64L50.04,161.64L50.5,156.34C51.6057,156.033,52.6701,155.593,53.67,155.03L57.74,158.45L62.74,153.45L59.32,149.39C59.8747,148.383,60.3142,147.316,60.63,146.21L65.94,145.76ZM46.51,150.44C44.8842,150.44,43.295,149.958,41.9432,149.055C40.5914,148.151,39.5379,146.868,38.9157,145.366C38.2936,143.864,38.1308,142.211,38.448,140.616C38.7651,139.022,39.548,137.557,40.6976,136.408C41.8472,135.258,43.3118,134.475,44.9064,134.158C46.5009,133.841,48.1537,134.004,49.6557,134.626C51.1577,135.248,52.4415,136.301,53.3447,137.653C54.2479,139.005,54.73,140.594,54.73,142.22C54.73,144.4,53.864,146.491,52.3224,148.032C50.7809,149.574,48.6901,150.44,46.51,150.44Z" fill="rgb(57,65,65)" fill-opacity="0.8" stroke="rgb(57,65,65)" stroke-width="1" stroke-linecap="round" stroke-linejoin="round" stroke-miterlimit="1"/><path id="eGJ5d2TNuIU48" d="M89.98,161.62L89.98,156.78L86.35,156.46C86.1412,155.704,85.8424,154.975,85.46,154.29L87.8,151.51L84.37,148.09L81.59,150.43C80.9032,150.049,80.1752,149.747,79.42,149.53L79.11,145.89L74.27,145.89L73.95,149.52C73.1948,149.737,72.4668,150.039,71.78,150.42L69,148.08L65.57,151.5L67.92,154.28C67.5302,154.963,67.2279,155.692,67.02,156.45L63.39,156.77L63.39,161.61L67.02,161.92C67.226,162.679,67.5285,163.408,67.92,164.09L65.57,166.89L69,170.31L71.78,167.97C72.4668,168.351,73.1948,168.653,73.95,168.87L74.27,172.49L79.11,172.49L79.42,168.87C80.1752,168.653,80.9032,168.351,81.59,167.97L84.37,170.31L87.8,166.89L85.51,164.1C85.8941,163.416,86.193,162.687,86.4,161.93L89.98,161.62ZM76.69,164.82C75.5756,164.822,74.4857,164.493,73.5584,163.875C72.631,163.257,71.9078,162.378,71.4805,161.349C71.0531,160.32,70.9408,159.187,71.1577,158.094C71.3746,157.001,71.911,155.997,72.699,155.209C73.487,154.421,74.491,153.885,75.5841,153.668C76.6771,153.451,77.81,153.563,78.8391,153.99C79.8683,154.418,80.7475,155.141,81.3653,156.068C81.9832,156.996,82.312,158.086,82.31,159.2C82.3073,160.69,81.7144,162.118,80.661,163.171C79.6076,164.224,78.1797,164.817,76.69,164.82L76.69,164.82Z" fill="rgb(57,65,65)" fill-opacity="0.8" stroke="rgb(57,65,65)" stroke-width="1" stroke-linecap="round" stroke-linejoin="round" stroke-miterlimit="1"/><path id="eGJ5d2TNuIU49" d="M214.15,255.02L252.88,255.02" fill="none" stroke="rgb(57,65,65)" stroke-width="2" stroke-linecap="round" stroke-linejoin="round" stroke-miterlimit="1"/><path id="eGJ5d2TNuIU50" d="M214.15,261.23L252.88,261.23" fill="none" stroke="rgb(57,65,65)" stroke-width="2" stroke-linecap="round" stroke-linejoin="round" stroke-miterlimit="1"/><path id="eGJ5d2TNuIU51" d="M214.15,267.56L236.23,267.56" fill="none" stroke="rgb(57,65,65)" stroke-width="2" stroke-linecap="round" stroke-linejoin="round" stroke-miterlimit="1"/><path id="eGJ5d2TNuIU52" d="M163.12,270.14L142.73,270.14C141.404,270.14,140.132,269.613,139.194,268.676C138.257,267.738,137.73,266.466,137.73,265.14C137.73,263.814,138.257,262.542,139.194,261.604C140.132,260.667,141.404,260.14,142.73,260.14L163.12,260.14C164.446,260.14,165.718,260.667,166.656,261.604C167.593,262.542,168.12,263.814,168.12,265.14C168.12,266.466,167.593,267.738,166.656,268.676C165.718,269.613,164.446,270.14,163.12,270.14Z" fill="rgb(57,65,65)" stroke="rgb(57,65,65)" stroke-width="1" stroke-linecap="round" stroke-linejoin="round" stroke-miterlimit="1"/><path id="eGJ5d2TNuIU53" d="M201.12,270.14L180.73,270.14C179.404,270.14,178.132,269.613,177.194,268.676C176.257,267.738,175.73,266.466,175.73,265.14C175.73,263.814,176.257,262.542,177.194,261.604C178.132,260.667,179.404,260.14,180.73,260.14L201.12,260.14C202.446,260.14,203.718,260.667,204.656,261.604C205.593,262.542,206.12,263.814,206.12,265.14C206.12,266.466,205.593,267.738,204.656,268.676C203.718,269.613,202.446,270.14,201.12,270.14Z" fill="rgb(57,65,65)" stroke="rgb(57,65,65)" stroke-width="1" stroke-linecap="round" stroke-linejoin="round" stroke-miterlimit="1"/><path id="eGJ5d2TNuIU54" d="M260.22,162.85L216.98,162.85L216.98,206.09L260.22,206.09L260.22,162.85Z" fill="rgb(255,255,255)" stroke="rgb(57,65,65)" stroke-width="1" stroke-linecap="round" stroke-linejoin="round" stroke-miterlimit="1"/><path id="eGJ5d2TNuIU55" d="M216.98,162.85L260.22,206.09" fill="none" stroke="rgb(57,65,65)" stroke-width="1" stroke-linecap="round" stroke-linejoin="round" stroke-miterlimit="1"/><path id="eGJ5d2TNuIU56" d="M260.22,162.85L216.98,206.09" fill="none" stroke="rgb(57,65,65)" stroke-width="1" stroke-linecap="round" stroke-linejoin="round" stroke-miterlimit="1"/><path id="eGJ5d2TNuIU57" d="M307.18,137.17L253.52,137.17L253.52,170.8L307.18,170.8L307.18,137.17Z" fill="rgb(57,65,65)" stroke="rgb(57,65,65)" stroke-width="1" stroke-linecap="round" stroke-linejoin="round" stroke-miterlimit="1"/><path id="eGJ5d2TNuIU58" d="M307.18,137.17L253.52,137.17L253.52,142.28L307.18,142.28L307.18,137.17Z" fill="rgb(91,180,98)" stroke="rgb(57,65,65)" stroke-width="1" stroke-linecap="round" stroke-linejoin="round" stroke-miterlimit="1"/><path id="eGJ5d2TNuIU59" d="M258.99,146.59L272.71,146.59" fill="none" stroke="rgb(255,255,255)" stroke-width="1" stroke-linecap="round" stroke-linejoin="round" stroke-miterlimit="1"/><path id="eGJ5d2TNuIU60" d="M265.85,150.41L289.59,150.41" fill="none" stroke="rgb(255,255,255)" stroke-width="1" stroke-linecap="round" stroke-linejoin="round" stroke-miterlimit="1"/><path id="eGJ5d2TNuIU61" d="M262.82,153.98L269.8,153.98" fill="none" stroke="rgb(255,255,255)" stroke-width="1" stroke-linecap="round" stroke-linejoin="round" stroke-miterlimit="1"/><path id="eGJ5d2TNuIU62" d="M265.85,158.19L281.84,158.19" fill="none" stroke="rgb(255,255,255)" stroke-width="1" stroke-linecap="round" stroke-linejoin="round" stroke-miterlimit="1"/><path id="eGJ5d2TNuIU63" d="M258.99,162.02L272.71,162.02" fill="none" stroke="rgb(255,255,255)" stroke-width="1" stroke-linecap="round" stroke-linejoin="round" stroke-miterlimit="1"/><path id="eGJ5d2TNuIU64" d="M233.94,113.77L233.94,123.86L229.49,128.31L219.4,128.31L219.4,113.77L233.94,113.77Z" fill="rgb(255,255,255)" stroke="rgb(57,65,65)" stroke-width="1" stroke-linecap="round" stroke-linejoin="round" stroke-miterlimit="1"/><path id="eGJ5d2TNuIU65" d="M233.94,123.86L229.49,128.31L229.49,123.86L233.94,123.86Z" fill="rgb(255,255,255)" stroke="rgb(57,65,65)" stroke-width="1" stroke-linecap="round" stroke-linejoin="round" stroke-miterlimit="1"/><path id="eGJ5d2TNuIU66" d="M79.31,191.8L79.31,201.89L74.86,206.34L64.77,206.34L64.77,191.8L79.31,191.8Z" fill="rgb(255,255,255)" stroke="rgb(57,65,65)" stroke-width="1" stroke-linecap="round" stroke-linejoin="round" stroke-miterlimit="1"/><path id="eGJ5d2TNuIU67" d="M79.31,201.89L74.86,206.34L74.86,201.89L79.31,201.89Z" fill="rgb(255,255,255)" stroke="rgb(57,65,65)" stroke-width="1" stroke-linecap="round" stroke-linejoin="round" stroke-miterlimit="1"/><path id="eGJ5d2TNuIU68" d="M24.36,253.96L24.36,264.05L19.91,268.5L9.82001,268.5L9.82001,253.96L24.36,253.96Z" fill="rgb(255,255,255)" stroke="rgb(57,65,65)" stroke-width="1" stroke-linecap="round" stroke-linejoin="round" stroke-miterlimit="1"/><path id="eGJ5d2TNuIU69" d="M24.36,264.05L19.91,268.5L19.91,264.05L24.36,264.05Z" fill="rgb(255,255,255)" stroke="rgb(57,65,65)" stroke-width="1" stroke-linecap="round" stroke-linejoin="round" stroke-miterlimit="1"/><ellipse id="eGJ5d2TNuIU70" rx="70" ry="9.5" transform="matrix(1 0 0 1 320 398.5)" fill="rgb(217,242,207)" stroke="none" stroke-width="1" stroke-miterlimit="1"/><ellipse id="eGJ5d2TNuIU71" rx="9.5" ry="1.5" transform="matrix(1 0 0 1 318.5 418.5)" fill="rgb(196,196,196)" fill-opacity="0.3" stroke="none" stroke-width="1" stroke-miterlimit="1"/><ellipse id="eGJ5d2TNuIU72" rx="9.5" ry="1.5" transform="matrix(0.974558 -0.224135 0.224135 0.974558 263.595108 414.590844)" fill="rgb(196,196,196)" fill-opacity="0.3" stroke="none" stroke-width="1" stroke-miterlimit="1"/><path id="eGJ5d2TNuIU73" d="M206.38,192.47C201.09,192.92,194.38,186.6,194.38,186.6C194.251,186.733,194.094,186.834,193.919,186.895C193.745,186.957,193.558,186.976,193.375,186.953C193.191,186.93,193.016,186.864,192.862,186.761C192.709,186.658,192.581,186.521,192.49,186.36C191.63,185.12,187.9,182.25,187.69,179.77C187.48,177.29,191.88,173.27,191.88,173.27C188.49,174.19,188.13,172.2,188.13,172.2C188.13,172.2,193.84,167.49,195.84,167.36C196.62,167.31,200.02,169.27,203.31,171.91C206.75,174.68,213.21,184.43,213.21,184.43C213.21,184.43,235.06,200.3,240.58,204.36C247.87,209.72,256.51,219.23,256.51,219.23C256.51,219.23,285.51,232.31,293.51,239.5L282.69,265.12C282.69,265.12,256.32,247.45,253.69,242.97C251.06,238.49,248.42,241.18,245.78,238.25C243.14,235.32,240.61,231.97,240.61,231.97C235.915,229.703,231.653,226.63,228.02,222.89C221.86,216.56,216.43,206.89,213.02,201.07C211.254,197.884,209.016,194.984,206.38,192.47Z" fill="rgb(255,255,255)" stroke="rgb(57,65,65)" stroke-width="1" stroke-linecap="round" stroke-linejoin="round" stroke-miterlimit="1"/><path id="eGJ5d2TNuIU74" d="M207.99,188.73C207.99,188.73,200.12,186.82,199.44,181.63C199.139,180.314,198.564,179.077,197.75,178C197.75,178,190.41,177.64,190.87,174.65L200.67,173.78C204.237,175.15,207.241,177.679,209.2,180.96" fill="rgb(255,255,255)" stroke="none" stroke-width="1" stroke-miterlimit="1"/><path id="eGJ5d2TNuIU75" d="M207.99,188.73C207.99,188.73,200.12,186.82,199.44,181.63C199.139,180.314,198.564,179.077,197.75,178C197.75,178,190.41,177.64,190.87,174.65L200.67,173.78C204.237,175.15,207.241,177.679,209.2,180.96" fill="none" stroke="rgb(57,65,65)" stroke-width="1" stroke-linecap="round" stroke-linejoin="round" stroke-miterlimit="1"/><path id="eGJ5d2TNuIU76" d="M194.37,186.6C194.719,185.952,194.836,185.204,194.7,184.48C194.7,184.48,196.86,184.08,196.62,182.17C196.62,182.17,199.82,181.78,197.75,178" fill="none" stroke="rgb(57,65,65)" stroke-width="1" stroke-linecap="round" stroke-linejoin="round" stroke-miterlimit="1"/><path id="eGJ5d2TNuIU77" d="M196.62,182.17C196.62,182.17,192.31,178.98,191.83,177.52" fill="none" stroke="rgb(57,65,65)" stroke-width="1" stroke-linecap="round" stroke-linejoin="round" stroke-miterlimit="1"/><path id="eGJ5d2TNuIU78" d="M194.7,184.48C194.7,184.48,190.11,181.68,190.03,180.05" fill="none" stroke="rgb(57,65,65)" stroke-width="1" stroke-linecap="round" stroke-linejoin="round" stroke-miterlimit="1"/><path id="eGJ5d2TNuIU79" d="M195.75,170.1C195.75,170.1,194.29,172.72,191.87,173.27" fill="none" stroke="rgb(57,65,65)" stroke-width="1" stroke-linecap="round" stroke-linejoin="round" stroke-miterlimit="1"/><path id="eGJ5d2TNuIU80" d="M195.02,171.12C195.787,171.521,196.511,172,197.18,172.55" fill="none" stroke="rgb(57,65,65)" stroke-width="1" stroke-linecap="round" stroke-linejoin="round" stroke-miterlimit="1"/><path id="eGJ5d2TNuIU81" d="M362.63,259.69C351.314,254.901,339.642,251.003,327.72,248.03C310.16,243.92,281.72,240.25,281.72,240.25C281.72,240.25,289.54,320.05,287.48,324.85C285.42,329.65,273.06,345.77,273.06,345.77C273.06,345.77,339.95,371.85,351.61,374.07C363.27,376.29,357.19,335.82,357.19,335.82C357.19,335.82,369.51,284.38,362.63,259.69Z" fill="rgb(57,65,65)" stroke="none" stroke-width="1" stroke-miterlimit="1"/><path id="eGJ5d2TNuIU82" d="M338.62,251.12C338.62,251.12,340.21,254.12,336.03,255.69C325.2,259.69,313.66,256.16,314.89,251.92C315.36,250.3,318.04,251.92,317.89,245.92C317.816,244.995,317.569,244.093,317.16,243.26C316.396,241.637,315.475,240.093,314.41,238.65C313.254,237.044,312.016,235.498,310.7,234.02C310.7,234.02,327.89,223.02,340.64,234.02C340.62,233.97,335.88,236.37,338.62,251.12Z" fill="rgb(255,255,255)" stroke="rgb(57,65,65)" stroke-width="1" stroke-linecap="round" stroke-linejoin="round" stroke-miterlimit="1"/><path id="eGJ5d2TNuIU83" d="M359.92,393.25C353.15,404.25,318.8,409.46,300.05,408.97C281.3,408.48,227.35,382.97,223.69,377.53C220.3,372.53,211.97,355.96,224.81,345.95C225.899,345.109,227.057,344.36,228.27,343.71C237.06,338.95,295.52,353.96,295.52,353.96C295.52,353.96,299.14,351.67,300.47,351.84C304.55,352.36,307.47,355.66,315.71,358.01C321.48,359.66,337.23,353.32,347.29,358.77C348.406,359.367,349.436,360.114,350.35,360.99C359.75,369.97,366.68,382.22,359.92,393.25Z" fill="rgb(91,180,98)" stroke="none" stroke-width="1" stroke-miterlimit="1"/><path id="eGJ5d2TNuIU84" d="M347.29,358.77C336.98,358.08,327.79,360.24,321.37,364.03C313.76,368.53,277.82,385.84,277.82,385.84C277.9,383.98,279.9,380.23,279.9,380.23C276.52,377.23,267.68,374.88,267.68,374.88C260.83,369.03,233.68,351.58,224.81,345.95C225.899,345.109,227.057,344.36,228.27,343.71C237.06,338.95,295.52,353.96,295.52,353.96C295.52,353.96,299.14,351.67,300.47,351.84C304.55,352.36,307.47,355.66,315.71,358.01C321.51,359.66,337.23,353.32,347.29,358.77Z" opacity="0.3" fill="rgb(0,0,0)" fill-opacity="0.7" stroke="none" stroke-width="1" stroke-miterlimit="1"/><path id="eGJ5d2TNuIU85" d="M359.92,393.25C353.15,404.25,318.8,409.46,300.05,408.97C281.3,408.48,227.35,382.97,223.69,377.53C220.3,372.53,211.97,355.96,224.81,345.95C225.899,345.109,227.057,344.36,228.27,343.71C237.06,338.95,295.52,353.96,295.52,353.96C295.52,353.96,299.14,351.67,300.47,351.84C304.55,352.36,307.47,355.66,315.71,358.01C321.48,359.66,337.23,353.32,347.29,358.77C348.406,359.367,349.436,360.114,350.35,360.99C359.75,369.97,366.68,382.22,359.92,393.25Z" fill="none" stroke="rgb(57,65,65)" stroke-width="1" stroke-linecap="round" stroke-linejoin="round" stroke-miterlimit="1"/><path id="eGJ5d2TNuIU86" d="M349.38,403.21L350.24,406.98C350.24,406.98,347.94,413.5,337.83,414.57C327.72,415.64,321.73,417.87,316.83,418.16C314.269,418.362,311.694,418.322,309.14,418.04L308.14,416.56L349.38,403.21Z" fill="rgb(255,255,255)" stroke="rgb(57,65,65)" stroke-width="1" stroke-linecap="round" stroke-linejoin="round" stroke-miterlimit="1"/><path id="eGJ5d2TNuIU87" d="M290.67,402.81L308.19,416.56C316.634,415.838,325.024,414.582,333.31,412.8C341.61,410.88,348.86,408.13,349.25,404.35C349.86,398.61,343.72,397.04,336.43,397.26C335.07,397.26,333.67,397.4,332.26,397.54C320.59,398.79,305.75,392.35,305.75,392.35L290.67,402.81Z" fill="rgb(57,65,65)" stroke="none" stroke-width="1" stroke-miterlimit="1"/><path id="eGJ5d2TNuIU88" d="M349.26,404.21C345.859,405.475,342.595,407.084,339.52,409.01C339.52,409.01,323.25,417.38,298.24,408.76L290.67,402.81L305.75,392.34C305.75,392.34,320.58,398.79,332.26,397.53C333.67,397.38,335.07,397.28,336.43,397.25C343.67,397.03,349.76,398.57,349.26,404.21Z" opacity="0.3" fill="rgb(0,0,0)" fill-opacity="0.7" stroke="none" stroke-width="1" stroke-miterlimit="1"/><path id="eGJ5d2TNuIU89" d="M290.67,402.81L308.19,416.56C316.634,415.838,325.024,414.582,333.31,412.8L333.31,412.8C341.61,410.88,348.86,408.13,349.25,404.35C349.86,398.61,343.72,397.04,336.43,397.26C335.07,397.26,333.67,397.4,332.26,397.54C320.59,398.79,305.75,392.35,305.75,392.35L290.67,402.81Z" fill="none" stroke="rgb(57,65,65)" stroke-width="1" stroke-linecap="round" stroke-linejoin="round" stroke-miterlimit="1"/><path id="eGJ5d2TNuIU90" d="M307,408.23C303.84,408.74,307.31,415.23,311.59,413.23C315.87,411.23,310.16,407.71,307,408.23Z" fill="rgb(255,255,255)" stroke="none" stroke-width="1" stroke-miterlimit="1"/><path id="eGJ5d2TNuIU91" d="M312.93,412.2C310.641,411.921,308.368,411.524,306.12,411.01C305.52,409.74,305.66,408.44,307,408.23C309.65,407.79,314.11,410.24,312.93,412.2Z" opacity="0.2" fill="rgb(0,0,0)" fill-opacity="0.7" stroke="none" stroke-width="1" stroke-miterlimit="1"/><path id="eGJ5d2TNuIU92" d="M307,408.23C303.84,408.74,307.31,415.23,311.59,413.23C315.87,411.23,310.16,407.71,307,408.23Z" fill="none" stroke="rgb(57,65,65)" stroke-width="1" stroke-linecap="round" stroke-linejoin="round" stroke-miterlimit="1"/><path id="eGJ5d2TNuIU93" d="M333.31,412.79C341.61,410.87,348.86,408.12,349.25,404.34C349.86,398.6,343.72,397.03,336.43,397.25C336.11,397.56,329.04,404.39,333.31,412.79Z" fill="rgb(255,255,255)" stroke="none" stroke-width="1" stroke-miterlimit="1"/><path id="eGJ5d2TNuIU94" d="M349.26,404.21C345.859,405.475,342.595,407.084,339.52,409.01C337.328,410.023,335.031,410.791,332.67,411.3C329.87,403.6,336.13,397.54,336.43,397.25C343.67,397.03,349.76,398.57,349.26,404.21Z" opacity="0.3" fill="rgb(0,0,0)" fill-opacity="0.7" stroke="none" stroke-width="1" stroke-miterlimit="1"/><path id="eGJ5d2TNuIU95" d="M333.31,412.79C341.61,410.87,348.86,408.12,349.25,404.34C349.86,398.6,343.72,397.03,336.43,397.25C336.11,397.56,329.04,404.39,333.31,412.79Z" fill="none" stroke="rgb(57,65,65)" stroke-width="1" stroke-linecap="round" stroke-linejoin="round" stroke-miterlimit="1"/><path id="eGJ5d2TNuIU96" d="M327.39,405.66L327.44,405.66C327.554,405.665,327.667,405.648,327.775,405.609C327.882,405.57,327.98,405.51,328.064,405.433C328.147,405.356,328.215,405.263,328.262,405.159C328.31,405.056,328.336,404.944,328.34,404.83C328.623,402.373,329.673,400.067,331.34,398.24C331.42,398.16,331.484,398.065,331.528,397.96C331.571,397.856,331.594,397.743,331.594,397.63C331.594,397.517,331.571,397.404,331.528,397.3C331.484,397.195,331.42,397.1,331.34,397.02C331.177,396.86,330.958,396.77,330.73,396.77C330.502,396.77,330.283,396.86,330.12,397.02C328.159,399.147,326.942,401.852,326.65,404.73C326.63,404.95,326.696,405.17,326.834,405.343C326.971,405.517,327.171,405.63,327.39,405.66Z" fill="rgb(255,255,255)" stroke="rgb(57,65,65)" stroke-width="1" stroke-linecap="round" stroke-linejoin="round" stroke-miterlimit="1"/><path id="eGJ5d2TNuIU97" d="M323.92,405.89L323.99,405.89C324.104,405.893,324.217,405.873,324.323,405.831C324.429,405.79,324.526,405.728,324.608,405.649C324.689,405.57,324.755,405.475,324.8,405.371C324.845,405.266,324.869,405.154,324.87,405.04C325.068,402.543,325.993,400.158,327.53,398.18C327.614,398.094,327.679,397.991,327.722,397.878C327.764,397.765,327.782,397.645,327.776,397.525C327.769,397.404,327.737,397.287,327.683,397.179C327.628,397.072,327.552,396.977,327.459,396.9C327.366,396.824,327.258,396.768,327.142,396.735C327.026,396.702,326.904,396.694,326.785,396.711C326.666,396.728,326.551,396.77,326.449,396.833C326.346,396.897,326.258,396.981,326.19,397.08C324.405,399.356,323.343,402.115,323.14,405C323.131,405.22,323.207,405.435,323.353,405.601C323.498,405.766,323.701,405.87,323.92,405.89Z" fill="rgb(255,255,255)" stroke="rgb(57,65,65)" stroke-width="1" stroke-linecap="round" stroke-linejoin="round" stroke-miterlimit="1"/><path id="eGJ5d2TNuIU98" d="M319.77,405.43C319.883,405.441,319.997,405.43,320.106,405.396C320.214,405.363,320.315,405.308,320.403,405.236C320.49,405.163,320.562,405.074,320.615,404.974C320.668,404.873,320.7,404.763,320.71,404.65C320.98,401.65,323.56,397.72,323.59,397.65C323.717,397.457,323.762,397.222,323.717,396.996C323.673,396.77,323.541,396.57,323.35,396.44C323.159,396.314,322.925,396.268,322.701,396.313C322.476,396.358,322.278,396.49,322.15,396.68C322.03,396.85,319.29,400.97,318.98,404.45C318.965,404.567,318.973,404.685,319.005,404.799C319.037,404.912,319.091,405.017,319.165,405.109C319.239,405.201,319.331,405.276,319.435,405.332C319.539,405.387,319.653,405.42,319.77,405.43Z" fill="rgb(255,255,255)" stroke="rgb(57,65,65)" stroke-width="1" stroke-linecap="round" stroke-linejoin="round" stroke-miterlimit="1"/><path id="eGJ5d2TNuIU99" d="M315.85,405.02C315.926,405.03,316.004,405.03,316.08,405.02C316.193,405.002,316.301,404.962,316.398,404.901C316.495,404.841,316.578,404.762,316.645,404.669C316.711,404.576,316.758,404.47,316.783,404.359C316.807,404.248,316.81,404.132,316.79,404.02C316.18,400.34,319.6,397.19,319.63,397.16C319.743,397,319.799,396.807,319.789,396.611C319.778,396.415,319.702,396.229,319.572,396.082C319.443,395.935,319.267,395.836,319.075,395.801C318.882,395.767,318.683,395.798,318.51,395.89C318.34,396.04,314.35,399.7,315.12,404.33C315.157,404.506,315.246,404.666,315.377,404.789C315.507,404.913,315.672,404.993,315.85,405.02Z" fill="rgb(255,255,255)" stroke="rgb(57,65,65)" stroke-width="1" stroke-linecap="round" stroke-linejoin="round" stroke-miterlimit="1"/><path id="eGJ5d2TNuIU100" d="M311.59,403.99C311.683,404.005,311.777,404.005,311.87,403.99C312.085,403.937,312.273,403.805,312.393,403.619C312.514,403.433,312.559,403.208,312.52,402.99C311.77,399.71,315,395.99,315.04,395.99C315.19,395.817,315.265,395.592,315.25,395.364C315.235,395.135,315.131,394.922,314.96,394.77C314.876,394.694,314.777,394.635,314.67,394.598C314.562,394.56,314.449,394.544,314.335,394.551C314.222,394.557,314.111,394.586,314.009,394.636C313.907,394.685,313.815,394.755,313.74,394.84C313.58,395.02,309.88,399.25,310.83,403.41C310.885,403.571,310.987,403.712,311.122,403.815C311.257,403.919,311.42,403.979,311.59,403.99Z" fill="rgb(255,255,255)" stroke="rgb(57,65,65)" stroke-width="1" stroke-linecap="round" stroke-linejoin="round" stroke-miterlimit="1"/><path id="eGJ5d2TNuIU101" d="M221.51,397.57L220.26,401.23C220.26,401.23,221.86,407.96,231.8,410.08C241.74,412.2,247.46,415.08,252.26,415.86C254.787,416.325,257.351,416.553,259.92,416.54L261.07,415.17L221.51,397.57Z" fill="rgb(255,255,255)" stroke="rgb(57,65,65)" stroke-width="1" stroke-linecap="round" stroke-linejoin="round" stroke-miterlimit="1"/><path id="eGJ5d2TNuIU102" d="M279.9,403.34L261.04,415.17C252.717,413.567,244.504,411.439,236.45,408.8C228.4,406.02,221.45,402.52,221.45,398.72C221.45,392.94,227.72,392.03,234.95,393.01C236.3,393.19,237.68,393.44,239.07,393.73C250.54,396.2,265.97,391.35,265.97,391.35L279.9,403.34Z" fill="rgb(57,65,65)" stroke="none" stroke-width="1" stroke-miterlimit="1"/><path id="eGJ5d2TNuIU103" d="M279.9,403.34L268.81,410.34C259.817,407.547,251.932,401.995,246.27,394.47C252.955,394.323,259.59,393.284,266,391.38L279.9,403.34Z" opacity="0.3" fill="rgb(0,0,0)" fill-opacity="0.7" stroke="none" stroke-width="1" stroke-miterlimit="1"/><path id="eGJ5d2TNuIU104" d="M279.9,403.34L261.04,415.17C252.717,413.567,244.504,411.439,236.45,408.8L236.45,408.8C228.4,406.02,221.45,402.52,221.45,398.72C221.45,392.94,227.72,392.03,234.95,393.01C236.3,393.19,237.68,393.44,239.07,393.73C250.54,396.2,265.97,391.35,265.97,391.35L279.9,403.34Z" fill="none" stroke="rgb(57,65,65)" stroke-width="1" stroke-linecap="round" stroke-linejoin="round" stroke-miterlimit="1"/><path id="eGJ5d2TNuIU105" d="M236.45,408.79C228.4,406.01,221.45,402.51,221.45,398.71C221.45,392.93,227.72,392.02,234.95,393C235.27,393.34,241.58,400.89,236.45,408.79Z" fill="rgb(255,255,255)" stroke="rgb(57,65,65)" stroke-width="1" stroke-linecap="round" stroke-linejoin="round" stroke-miterlimit="1"/><path id="eGJ5d2TNuIU106" d="M243.09,402.32L243.04,402.32C242.81,402.305,242.595,402.2,242.442,402.028C242.289,401.856,242.209,401.63,242.22,401.4C242.204,398.931,241.41,396.531,239.95,394.54C239.865,394.453,239.799,394.348,239.757,394.234C239.715,394.119,239.698,393.997,239.706,393.876C239.714,393.754,239.747,393.636,239.804,393.528C239.861,393.42,239.94,393.325,240.036,393.25C240.132,393.174,240.242,393.12,240.36,393.09C240.479,393.06,240.602,393.055,240.722,393.076C240.842,393.097,240.956,393.143,241.058,393.211C241.159,393.278,241.245,393.367,241.31,393.47C243.036,395.779,243.962,398.587,243.95,401.47C243.947,401.696,243.856,401.913,243.695,402.072C243.534,402.231,243.316,402.32,243.09,402.32Z" fill="rgb(255,255,255)" stroke="rgb(57,65,65)" stroke-width="1" stroke-linecap="round" stroke-linejoin="round" stroke-miterlimit="1"/><path id="eGJ5d2TNuIU107" d="M246.51,402.89L246.43,402.89C246.201,402.87,245.989,402.759,245.841,402.583C245.693,402.407,245.621,402.179,245.64,401.95C245.711,399.451,245.047,396.985,243.73,394.86C243.664,394.765,243.618,394.659,243.593,394.546C243.569,394.434,243.567,394.318,243.587,394.204C243.608,394.091,243.65,393.983,243.712,393.886C243.775,393.789,243.855,393.706,243.95,393.64C244.045,393.574,244.151,393.528,244.264,393.503C244.376,393.479,244.492,393.477,244.605,393.497C244.719,393.518,244.827,393.56,244.924,393.622C245.021,393.685,245.104,393.765,245.17,393.86C246.715,396.308,247.482,399.167,247.37,402.06C247.36,402.282,247.265,402.492,247.105,402.646C246.945,402.8,246.732,402.888,246.51,402.89Z" fill="rgb(255,255,255)" stroke="rgb(57,65,65)" stroke-width="1" stroke-linecap="round" stroke-linejoin="round" stroke-miterlimit="1"/><path id="eGJ5d2TNuIU108" d="M250.69,402.89C250.46,402.885,250.241,402.79,250.081,402.625C249.92,402.461,249.83,402.24,249.83,402.01C249.89,398.96,247.73,394.83,247.7,394.79C247.594,394.584,247.573,394.345,247.643,394.124C247.712,393.903,247.865,393.719,248.07,393.61C248.274,393.505,248.512,393.484,248.731,393.554C248.951,393.623,249.133,393.776,249.24,393.98C249.34,394.16,251.63,398.54,251.57,402.04C251.565,402.269,251.469,402.487,251.305,402.646C251.14,402.805,250.919,402.893,250.69,402.89Z" fill="rgb(255,255,255)" stroke="rgb(57,65,65)" stroke-width="1" stroke-linecap="round" stroke-linejoin="round" stroke-miterlimit="1"/><path id="eGJ5d2TNuIU109" d="M254.63,402.89L254.4,402.89C254.179,402.827,253.992,402.679,253.879,402.479C253.767,402.278,253.738,402.041,253.8,401.82C254.8,398.23,251.73,394.73,251.7,394.7C251.613,394.617,251.544,394.518,251.498,394.407C251.452,394.296,251.429,394.178,251.43,394.058C251.432,393.938,251.459,393.82,251.508,393.71C251.558,393.601,251.629,393.504,251.719,393.423C251.808,393.343,251.912,393.282,252.026,393.245C252.14,393.207,252.26,393.193,252.38,393.204C252.499,393.215,252.615,393.25,252.72,393.308C252.825,393.366,252.917,393.445,252.99,393.54C253.14,393.71,256.73,397.77,255.47,402.29C255.411,402.466,255.298,402.618,255.147,402.726C254.996,402.834,254.815,402.891,254.63,402.89Z" fill="rgb(255,255,255)" stroke="rgb(57,65,65)" stroke-width="1" stroke-linecap="round" stroke-linejoin="round" stroke-miterlimit="1"/><path id="eGJ5d2TNuIU110" d="M258.98,402.32C258.884,402.324,258.789,402.307,258.7,402.27C258.591,402.235,258.49,402.179,258.404,402.104C258.317,402.029,258.246,401.938,258.196,401.835C258.145,401.732,258.116,401.62,258.11,401.506C258.104,401.392,258.121,401.278,258.16,401.17C259.25,397.99,256.42,393.96,256.4,393.92C256.318,393.829,256.256,393.721,256.219,393.604C256.182,393.488,256.169,393.364,256.183,393.242C256.196,393.121,256.236,393.003,256.298,392.897C256.36,392.792,256.444,392.7,256.544,392.629C256.644,392.558,256.758,392.509,256.878,392.486C256.999,392.462,257.123,392.464,257.242,392.491C257.362,392.519,257.474,392.571,257.572,392.645C257.67,392.719,257.751,392.813,257.81,392.92C257.95,393.11,261.18,397.71,259.81,401.75C259.747,401.919,259.633,402.064,259.485,402.165C259.336,402.267,259.16,402.321,258.98,402.32Z" fill="rgb(255,255,255)" stroke="rgb(57,65,65)" stroke-width="1" stroke-linecap="round" stroke-linejoin="round" stroke-miterlimit="1"/><path id="eGJ5d2TNuIU111" d="M263.09,407.01C266.18,407.86,262.09,413.91,258,411.51C253.91,409.11,260.01,406.17,263.09,407.01Z" fill="rgb(255,255,255)" stroke="rgb(57,65,65)" stroke-width="1" stroke-linecap="round" stroke-linejoin="round" stroke-miterlimit="1"/><path id="eGJ5d2TNuIU112" d="M227.43,374.89C232.06,381.38,245.79,388.55,259.43,394.46C261.869,398.501,264.747,402.26,268.01,405.67C276.43,414.33,279.86,409.48,279.86,409.48C279.86,409.48,285.18,408.88,293.03,407.81C293.357,408.571,293.926,409.203,294.65,409.607C295.374,410.01,296.211,410.162,297.03,410.04C298.03,409.88,300.03,408.42,302.24,406.49C322.07,403.49,348.98,398.49,356.24,392.67" fill="rgb(91,180,98)" stroke="none" stroke-width="1" stroke-miterlimit="1"/><path id="eGJ5d2TNuIU113" d="M227.43,374.89C232.06,381.38,245.79,388.55,259.43,394.46C261.869,398.501,264.747,402.26,268.01,405.67C276.43,414.33,279.86,409.48,279.86,409.48C279.86,409.48,285.18,408.88,293.03,407.81C293.357,408.571,293.926,409.203,294.65,409.607C295.374,410.01,296.211,410.162,297.03,410.04C298.03,409.88,300.03,408.42,302.24,406.49C322.07,403.49,348.98,398.49,356.24,392.67" fill="none" stroke="rgb(57,65,65)" stroke-width="1" stroke-linecap="round" stroke-linejoin="round" stroke-miterlimit="1"/><path id="eGJ5d2TNuIU114" d="M348.51,362.53C345.08,358.76,341.65,358.59,334.45,359.1C334.45,359.1,315.66,365.1,302.55,372.99C289.44,380.88,270.32,389.25,270.32,389.25C270.32,389.25,264.49,387.56,260.43,389.25C260.43,389.25,257.58,389.47,259.49,394.45" fill="none" stroke="rgb(57,65,65)" stroke-width="1" stroke-linecap="round" stroke-linejoin="round" stroke-miterlimit="1"/><path id="eGJ5d2TNuIU115" d="M357.23,385.06C357.23,385.06,357.33,390.87,349.09,394.89" fill="none" stroke="rgb(57,65,65)" stroke-width="1" stroke-linecap="round" stroke-linejoin="round" stroke-miterlimit="1"/><path id="eGJ5d2TNuIU116" d="M266.35,360.82C266.35,360.82,279.35,370.22,281.96,376.42C284.515,377.497,286.982,378.771,289.34,380.23" fill="none" stroke="rgb(57,65,65)" stroke-width="1" stroke-linecap="round" stroke-linejoin="round" stroke-miterlimit="1"/><path id="eGJ5d2TNuIU117" d="M282.9,368.63C283.853,371.332,284.013,374.25,283.36,377.04" fill="none" stroke="rgb(57,65,65)" stroke-width="1" stroke-linecap="round" stroke-linejoin="round" stroke-miterlimit="1"/><path id="eGJ5d2TNuIU118" d="M279.9,362.53C280.608,363.56,281.23,364.647,281.76,365.78" fill="none" stroke="rgb(57,65,65)" stroke-width="1" stroke-linecap="round" stroke-linejoin="round" stroke-miterlimit="1"/><path id="eGJ5d2TNuIU119" d="M298.42,361.67C298.42,361.67,302.77,367.49,303.85,372.21" fill="none" stroke="rgb(57,65,65)" stroke-width="1" stroke-linecap="round" stroke-linejoin="round" stroke-miterlimit="1"/><path id="eGJ5d2TNuIU120" d="M322.65,396.83C324.268,396.735,325.878,396.534,327.47,396.23" fill="none" stroke="rgb(57,65,65)" stroke-width="1" stroke-linecap="round" stroke-linejoin="round" stroke-miterlimit="1"/><path id="eGJ5d2TNuIU121" d="M281.84,392.66C294.166,395.102,306.671,396.536,319.23,396.95" fill="none" stroke="rgb(57,65,65)" stroke-width="1" stroke-linecap="round" stroke-linejoin="round" stroke-miterlimit="1"/><path id="eGJ5d2TNuIU122" d="M369.83,304.48C369.83,304.48,367.48,345.48,364.71,347.83C361.94,350.18,357.57,350.91,349.3,351.6C341.03,352.29,304.45,354.53,304.45,354.53L300.51,342.78C300.51,342.78,319.96,340.78,328.59,337.63C335.097,335.406,341.753,333.648,348.51,332.37C348.51,332.37,346.87,322.06,346.87,317.62L346.87,296.74" fill="rgb(255,255,255)" stroke="none" stroke-width="1" stroke-miterlimit="1"/><path id="eGJ5d2TNuIU123" d="M369.83,304.48C369.83,304.48,367.48,345.48,364.71,347.83C361.94,350.18,357.57,350.91,349.3,351.6C341.03,352.29,304.45,354.53,304.45,354.53L300.51,342.78C300.51,342.78,319.96,340.78,328.59,337.63C335.097,335.406,341.753,333.648,348.51,332.37C348.51,332.37,346.87,322.06,346.87,317.62L346.87,296.74" fill="none" stroke="rgb(57,65,65)" stroke-width="1" stroke-linecap="round" stroke-linejoin="round" stroke-miterlimit="1"/><path id="eGJ5d2TNuIU124" d="M362.63,259.69C371.54,265.18,374.17,277.87,371.09,304.96C371.09,304.96,373.72,308.16,369.83,309.76C369.83,309.76,355.26,304.31,348.49,308.07C341.72,311.83,343.49,302.88,343.49,302.88C343.49,302.88,340.7,277.96,346.87,273.45" fill="rgb(57,65,65)" stroke="none" stroke-width="1" stroke-miterlimit="1"/><path id="eGJ5d2TNuIU125" d="M346.05,269.64C346.05,269.64,337.48,278.55,345.05,301.07C344.572,302.908,344.238,304.78,344.05,306.67C344.05,308.18,346.12,308.96,346.12,308.96" fill="none" stroke="rgb(255,255,255)" stroke-width="1" stroke-linecap="round" stroke-linejoin="round" stroke-miterlimit="1"/><path id="eGJ5d2TNuIU126" d="M336.03,284.73C336.03,284.73,336.65,295.73,343.47,300.5" fill="none" stroke="rgb(255,255,255)" stroke-width="1" stroke-linecap="round" stroke-linejoin="round" stroke-miterlimit="1"/><path id="eGJ5d2TNuIU127" d="M338.23,259.19C338.23,259.19,324.94,264.28,314.37,258.64C308.1,255.3,310.68,249.93,310.68,249.93" fill="none" stroke="rgb(255,255,255)" stroke-width="1" stroke-linecap="round" stroke-linejoin="round" stroke-miterlimit="1"/><path id="eGJ5d2TNuIU128" d="M242.66,362.55L315,362.55C316.634,362.551,318.261,362.339,319.84,361.92L334.11,358.18C334.307,358.129,334.482,358.014,334.607,357.853C334.732,357.692,334.8,357.494,334.8,357.29C334.8,357.043,334.702,356.807,334.528,356.632C334.353,356.458,334.117,356.36,333.87,356.36L239.67,356.36C239.425,356.363,239.191,356.462,239.019,356.636C238.847,356.81,238.75,357.045,238.75,357.29L238.75,358.64C238.75,359.677,239.162,360.672,239.895,361.405C240.629,362.138,241.623,362.55,242.66,362.55Z" fill="rgb(117,117,117)" stroke="rgb(57,65,65)" stroke-width="1" stroke-linecap="round" stroke-linejoin="round" stroke-miterlimit="1"/><path id="eGJ5d2TNuIU129" d="M235.51,358.95L308.05,358.95C308.334,358.963,308.617,358.905,308.873,358.782C309.13,358.659,309.351,358.474,309.519,358.245C309.686,358.015,309.794,357.747,309.833,357.465C309.871,357.183,309.839,356.896,309.74,356.63L296.29,304.3C296.11,303.658,295.733,303.088,295.213,302.67C294.693,302.253,294.056,302.008,293.39,301.97L220.83,301.97C220.545,301.959,220.263,302.018,220.006,302.142C219.75,302.267,219.529,302.452,219.362,302.683C219.195,302.913,219.087,303.182,219.048,303.464C219.009,303.746,219.041,304.033,219.14,304.3L232.6,356.63C232.78,357.273,233.158,357.844,233.68,358.26C234.202,358.677,234.843,358.918,235.51,358.95Z" fill="rgb(153,153,153)" stroke="rgb(57,65,65)" stroke-width="1" stroke-linecap="round" stroke-linejoin="round" stroke-miterlimit="1"/><path id="eGJ5d2TNuIU130" d="M223.39,303.82L222.02,303.82" fill="none" stroke="rgb(57,65,65)" stroke-width="1" stroke-linecap="round" stroke-linejoin="round" stroke-miterlimit="1"/><path id="eGJ5d2TNuIU131" d="M234.02,303.82L226.93,303.82" fill="none" stroke="rgb(57,65,65)" stroke-width="1" stroke-linecap="round" stroke-linejoin="round" stroke-miterlimit="1"/><path id="eGJ5d2TNuIU132" d="M306.29,352.34L294.41,306.16C294.232,305.519,293.857,304.949,293.339,304.531C292.821,304.114,292.185,303.868,291.52,303.83L235.62,303.83" fill="none" stroke="rgb(57,65,65)" stroke-width="1" stroke-linecap="round" stroke-linejoin="round" stroke-miterlimit="1"/><path id="eGJ5d2TNuIU133" d="M307.32,356.36L307.02,355.21" fill="none" stroke="rgb(57,65,65)" stroke-width="1" stroke-linecap="round" stroke-linejoin="round" stroke-miterlimit="1"/><path id="eGJ5d2TNuIU134" d="M257.32,331.78C257.369,332.204,257.456,332.622,257.58,333.03C258.5,336.18,261.45,338.1,264.16,337.3C266.87,336.5,268.32,333.3,267.4,330.15C266.48,327,263.51,325.08,260.8,325.88C260.484,325.977,260.179,326.108,259.89,326.27C260.039,327.339,259.876,328.427,259.42,329.405C258.964,330.383,258.234,331.208,257.32,331.78Z" fill="rgb(255,255,255)" stroke="rgb(57,65,65)" stroke-width="1" stroke-linecap="round" stroke-linejoin="round" stroke-miterlimit="1"/><path id="eGJ5d2TNuIU135" d="M289.34,233.71C283.06,233.03,279.64,227.06,275.86,226.13C273.751,225.625,271.685,224.957,269.68,224.13C269.68,224.13,268.38,219.59,266.43,221.13C264.48,222.67,261.92,256.63,264.43,255.56C266.94,254.49,266.95,258.5,266.95,258.5L290.26,279.04L309.8,244.44C309.8,244.44,295.62,234.4,289.34,233.71Z" fill="rgb(57,65,65)" stroke="none" stroke-width="1" stroke-miterlimit="1"/><path id="eGJ5d2TNuIU136" d="M99.39,112.78L99.39,112.28L99.89,112.28" fill="none" stroke="rgb(57,65,65)" stroke-width="1" stroke-linecap="round" stroke-linejoin="round" stroke-miterlimit="1"/><path id="eGJ5d2TNuIU137" d="M102.83,112.28L187.43,112.28" fill="none" stroke="rgb(57,65,65)" stroke-width="1" stroke-linecap="round" stroke-linejoin="round" stroke-miterlimit="1" stroke-dasharray="0.98,2.93"/><path id="eGJ5d2TNuIU138" d="M188.89,112.28L189.39,112.28L189.39,112.78" fill="none" stroke="rgb(57,65,65)" stroke-width="1" stroke-linecap="round" stroke-linejoin="round" stroke-miterlimit="1"/><path id="eGJ5d2TNuIU139" d="M189.39,115.78L189.39,170.28" fill="none" stroke="rgb(57,65,65)" stroke-width="1" stroke-linecap="round" stroke-linejoin="round" stroke-miterlimit="1" stroke-dasharray="1,3"/><path id="eGJ5d2TNuIU140" d="M189.39,171.78L189.39,172.28L188.89,172.28" fill="none" stroke="rgb(57,65,65)" stroke-width="1" stroke-linecap="round" stroke-linejoin="round" stroke-miterlimit="1"/><path id="eGJ5d2TNuIU141" d="M185.96,172.28L101.36,172.28" fill="none" stroke="rgb(57,65,65)" stroke-width="1" stroke-linecap="round" stroke-linejoin="round" stroke-miterlimit="1" stroke-dasharray="0.98,2.93"/><path id="eGJ5d2TNuIU142" d="M99.89,172.28L99.39,172.28L99.39,171.78" fill="none" stroke="rgb(57,65,65)" stroke-width="1" stroke-linecap="round" stroke-linejoin="round" stroke-miterlimit="1"/><path id="eGJ5d2TNuIU143" d="M99.39,168.78L99.39,114.28" fill="none" stroke="rgb(57,65,65)" stroke-width="1" stroke-linecap="round" stroke-linejoin="round" stroke-miterlimit="1" stroke-dasharray="1,3"/><path id="eGJ5d2TNuIU144" d="M144.39,113.76C145.207,113.76,145.87,113.097,145.87,112.28C145.87,111.463,145.207,110.8,144.39,110.8C143.573,110.8,142.91,111.463,142.91,112.28C142.91,113.097,143.573,113.76,144.39,113.76Z" fill="rgb(91,180,98)" stroke="rgb(57,65,65)" stroke-width="1" stroke-linecap="round" stroke-linejoin="round" stroke-miterlimit="1"/><path id="eGJ5d2TNuIU145" d="M99.39,143.76C100.207,143.76,100.87,143.097,100.87,142.28C100.87,141.463,100.207,140.8,99.39,140.8C98.5726,140.8,97.91,141.463,97.91,142.28C97.91,143.097,98.5726,143.76,99.39,143.76Z" fill="rgb(91,180,98)" stroke="rgb(57,65,65)" stroke-width="1" stroke-linecap="round" stroke-linejoin="round" stroke-miterlimit="1"/><path id="eGJ5d2TNuIU146" d="M144.39,173.76C145.207,173.76,145.87,173.097,145.87,172.28C145.87,171.463,145.207,170.8,144.39,170.8C143.573,170.8,142.91,171.463,142.91,172.28C142.91,173.097,143.573,173.76,144.39,173.76Z" fill="rgb(91,180,98)" stroke="rgb(57,65,65)" stroke-width="1" stroke-linecap="round" stroke-linejoin="round" stroke-miterlimit="1"/><path id="eGJ5d2TNuIU147" d="M189.39,143.76C190.207,143.76,190.87,143.097,190.87,142.28C190.87,141.463,190.207,140.8,189.39,140.8C188.573,140.8,187.91,141.463,187.91,142.28C187.91,143.097,188.573,143.76,189.39,143.76Z" fill="rgb(91,180,98)" stroke="rgb(57,65,65)" stroke-width="1" stroke-linecap="round" stroke-linejoin="round" stroke-miterlimit="1"/><path id="eGJ5d2TNuIU148" d="M191.12,170.56L187.67,170.56L187.67,174.01L191.12,174.01L191.12,170.56Z" fill="rgb(91,180,98)" stroke="rgb(57,65,65)" stroke-width="1" stroke-linecap="round" stroke-linejoin="round" stroke-miterlimit="1"/><path id="eGJ5d2TNuIU149" d="M191.12,110.56L187.67,110.56L187.67,114.01L191.12,114.01L191.12,110.56Z" fill="rgb(91,180,98)" stroke="rgb(57,65,65)" stroke-width="1" stroke-linecap="round" stroke-linejoin="round" stroke-miterlimit="1"/><path id="eGJ5d2TNuIU150" d="M101.12,170.56L97.67,170.56L97.67,174.01L101.12,174.01L101.12,170.56Z" fill="rgb(91,180,98)" stroke="rgb(57,65,65)" stroke-width="1" stroke-linecap="round" stroke-linejoin="round" stroke-miterlimit="1"/><path id="eGJ5d2TNuIU151" d="M101.12,110.56L97.67,110.56L97.67,114.01L101.12,114.01L101.12,110.56Z" fill="rgb(91,180,98)" stroke="rgb(57,65,65)" stroke-width="1" stroke-linecap="round" stroke-linejoin="round" stroke-miterlimit="1"/><path id="eGJ5d2TNuIU152" d="M183.7,117.58L105.37,117.58L105.37,167.35L183.7,167.35L183.7,117.58Z" fill="rgb(255,255,255)" stroke="rgb(57,65,65)" stroke-width="1" stroke-linecap="round" stroke-linejoin="round" stroke-miterlimit="1"/><path id="eGJ5d2TNuIU153" d="M293.51,242.89C293.51,242.89,287.51,254.06,286.8,271.15" fill="none" stroke="rgb(255,255,255)" stroke-width="1" stroke-linecap="round" stroke-linejoin="round" stroke-miterlimit="1"/><path id="eGJ5d2TNuIU154" d="M275.87,250.62C275.87,250.62,277.66,260.12,282.87,267" fill="none" stroke="rgb(255,255,255)" stroke-width="1" stroke-linecap="round" stroke-linejoin="round" stroke-miterlimit="1"/><path id="eGJ5d2TNuIU155" d="M300.51,289.82C300.51,289.82,309.51,319.38,329.06,328.08" fill="none" stroke="rgb(255,255,255)" stroke-width="1" stroke-linecap="round" stroke-linejoin="round" stroke-miterlimit="1"/><path id="eGJ5d2TNuIU156" d="M324.19,236.31C324.19,236.31,323.34,242.76,317.14,243.21C316.376,241.587,315.455,240.043,314.39,238.6C317.61,237.647,320.882,236.883,324.19,236.31Z" fill="rgb(57,65,65)" stroke="none" stroke-width="1" stroke-miterlimit="1"/><path id="eGJ5d2TNuIU157" d="M337.4,236.76C337.4,236.76,347.77,238.03,352.11,224.11C356.45,210.19,353.04,199.7,335.88,194.65C326.36,191.85,316.88,194.1,313.41,201.31C310.47,207.48,311.86,212.61,311.19,214.68C310.43,217,303.41,218.97,303.41,220.56C303.41,221.87,307.3,224.11,307.3,224.11L306.16,227.57L307.23,228.14C307.23,228.14,305.23,235.93,306.16,238.68C306.82,240.68,324.39,241.52,325.76,236.54" fill="rgb(255,255,255)" stroke="none" stroke-width="1" stroke-miterlimit="1"/><path id="eGJ5d2TNuIU158" d="M337.4,236.76C337.4,236.76,347.77,238.03,352.11,224.11C356.45,210.19,353.04,199.7,335.88,194.65C326.36,191.85,316.88,194.1,313.41,201.31C310.47,207.48,311.86,212.61,311.19,214.68C310.43,217,303.41,218.97,303.41,220.56C303.41,221.87,307.3,224.11,307.3,224.11L306.16,227.57L307.23,228.14C307.23,228.14,305.23,235.93,306.16,238.68C306.82,240.68,324.39,241.52,325.76,236.54" fill="none" stroke="rgb(57,65,65)" stroke-width="1" stroke-linecap="round" stroke-linejoin="round" stroke-miterlimit="1"/><path id="eGJ5d2TNuIU159" d="M313.51,206.36C313.51,206.36,316.94,207.22,317.88,209.02" fill="none" stroke="rgb(57,65,65)" stroke-width="1" stroke-linecap="round" stroke-linejoin="round" stroke-miterlimit="1"/><path id="eGJ5d2TNuIU160" d="M314.11,214.27C313.96,215.27,314.19,216.14,314.63,216.2C315.07,216.26,315.53,215.5,315.68,214.49C315.83,213.48,315.59,212.62,315.16,212.56C314.73,212.5,314.26,213.26,314.11,214.27Z" fill="rgb(57,65,65)" stroke="none" stroke-width="1" stroke-miterlimit="1"/><path id="eGJ5d2TNuIU161" d="M307.23,228.14C307.23,228.14,312.81,230.28,314.89,228.99" fill="none" stroke="rgb(57,65,65)" stroke-width="1" stroke-linecap="round" stroke-linejoin="round" stroke-miterlimit="1"/><path id="eGJ5d2TNuIU162" d="M309.19,213.47C308.78,215.71,309.28,217.67,310.31,217.86C311.34,218.05,312.52,216.4,312.93,214.17C313.34,211.94,312.85,209.96,311.81,209.77C310.77,209.58,309.61,211.24,309.19,213.47Z" fill="none" stroke="rgb(57,65,65)" stroke-width="1" stroke-linecap="round" stroke-linejoin="round" stroke-miterlimit="1"/><path id="eGJ5d2TNuIU163" d="M352.57,202.08C351.735,198.028,349.408,194.437,346.05,192.02C342.307,189.392,338.022,187.639,333.51,186.89C333.51,186.89,336.82,188.34,338.08,190.25C338.08,190.25,329.51,183.81,319.33,188.04C309.15,192.27,310.42,203.26,310.42,203.26L311.9,200.38C311.9,200.38,311.73,203.81,313.53,205.07C314.069,203.39,314.804,201.779,315.72,200.27C315.72,200.27,318.42,208.38,325.85,211.13C325.345,209.851,325.303,208.437,325.73,207.13C325.73,207.13,329.85,216.04,328.65,220.39L329.96,222.67C329.96,222.67,334.69,217.88,338.54,221.87C340.75,224.17,334.31,232.87,333.39,232.87L337.28,238.58C337.28,238.58,347,239.97,352.6,229.44C358.2,218.91,356.83,214.44,356.83,214.44C356.83,214.44,358.66,217,358.83,218.44C358.85,218.42,360.51,207.11,352.57,202.08Z" fill="rgb(57,65,65)" stroke="none" stroke-width="1" stroke-miterlimit="1"/><path id="eGJ5d2TNuIU164" d="M329.7,223.68C329.7,223.68,332.7,213.6,339.08,217.15C345.46,220.7,340.91,226.08,338.62,228.15C336.33,230.22,334.62,233.98,333.13,233.98C331.64,233.98,331.31,232.15,331.31,232.15" fill="rgb(255,255,255)" stroke="none" stroke-width="1" stroke-miterlimit="1"/><path id="eGJ5d2TNuIU165" d="M329.7,223.68C329.7,223.68,332.7,213.6,339.08,217.15C345.46,220.7,340.91,226.08,338.62,228.15C336.33,230.22,334.62,233.98,333.13,233.98C331.64,233.98,331.31,232.15,331.31,232.15" fill="none" stroke="rgb(57,65,65)" stroke-width="1" stroke-linecap="round" stroke-linejoin="round" stroke-miterlimit="1"/><path id="eGJ5d2TNuIU166" d="M312.93,214.16L330.73,217.86" fill="none" stroke="rgb(57,65,65)" stroke-width="1" stroke-linecap="round" stroke-linejoin="round" stroke-miterlimit="1"/><path id="eGJ5d2TNuIU167" d="M117.582,140.175C117.582,140.175,117.582,140.19,117.582,140.175C117.795,140.385,117.886,140.61,117.886,140.895C117.886,141.165,117.78,141.405,117.582,141.6C117.385,141.795,117.142,141.9,116.868,141.9C116.579,141.9,116.351,141.795,116.154,141.6L116.138,141.6C115.561,141.03,114.846,140.745,114.026,140.745C113.19,140.745,112.49,141.03,111.898,141.615C111.32,142.17,111.016,142.875,111.016,143.7C111.016,144.525,111.305,145.215,111.898,145.8C112.49,146.385,113.19,146.67,114.026,146.67C114.846,146.67,115.561,146.385,116.138,145.815L116.154,145.8C116.351,145.605,116.594,145.515,116.868,145.515C117.157,145.515,117.4,145.62,117.598,145.815C117.795,146.01,117.902,146.25,117.902,146.535C117.902,146.82,117.795,147.06,117.598,147.255L117.582,147.27C116.61,148.23,115.409,148.725,114.01,148.725C112.612,148.725,111.426,148.245,110.438,147.27C109.45,146.295,108.964,145.125,108.964,143.745C108.964,142.365,109.45,141.195,110.438,140.22C111.426,139.245,112.612,138.765,114.01,138.765C115.409,138.765,116.61,139.2,117.582,140.175Z" fill="rgb(117,117,117)" stroke="none" stroke-width="1" stroke-miterlimit="1"/><path id="eGJ5d2TNuIU168" d="M127.918,140.175C128.906,141.15,129.408,142.32,129.408,143.7C129.408,145.08,128.922,146.25,127.934,147.225C126.946,148.2,125.76,148.68,124.362,148.68C122.963,148.68,121.778,148.2,120.79,147.225C119.802,146.25,119.315,145.08,119.315,143.7C119.315,142.32,119.802,141.15,120.79,140.175C121.778,139.2,122.963,138.72,124.362,138.72C125.76,138.72,126.946,139.2,127.918,140.175ZM124.346,140.73C123.51,140.73,122.811,141.015,122.218,141.6C121.626,142.17,121.337,142.875,121.337,143.7C121.337,144.525,121.626,145.215,122.218,145.8C122.811,146.385,123.51,146.67,124.346,146.67C125.182,146.67,125.882,146.385,126.474,145.8C127.052,145.215,127.356,144.525,127.356,143.7C127.356,142.875,127.067,142.185,126.474,141.6C125.882,141.03,125.182,140.73,124.346,140.73Z" fill="rgb(117,117,117)" stroke="none" stroke-width="1" stroke-miterlimit="1"/><path id="eGJ5d2TNuIU169" d="M136.537,138.69C136.826,138.69,137.069,138.795,137.266,138.99C137.464,139.185,137.57,139.425,137.57,139.71C137.57,139.995,137.464,140.235,137.266,140.43C137.069,140.625,136.826,140.73,136.537,140.73L136.522,140.73C135.686,140.73,134.986,141.015,134.394,141.6C133.846,142.125,133.558,142.755,133.527,143.49C133.527,143.55,133.542,143.61,133.542,143.67L133.542,147.525C133.542,147.9,133.436,148.185,133.238,148.38C133.041,148.575,132.798,148.68,132.509,148.68C132.22,148.68,131.977,148.575,131.779,148.38C131.582,148.185,131.475,147.885,131.475,147.495L131.475,143.655C131.49,142.29,131.977,141.135,132.95,140.175C133.877,139.26,135.078,138.765,136.537,138.69Z" fill="rgb(117,117,117)" stroke="none" stroke-width="1" stroke-miterlimit="1"/><path id="eGJ5d2TNuIU170" d="M143.027,138.69C143.316,138.69,143.559,138.795,143.757,138.99C143.954,139.185,144.061,139.425,144.061,139.71C144.061,139.995,143.954,140.235,143.757,140.43C143.559,140.625,143.316,140.73,143.027,140.73L143.012,140.73C142.176,140.73,141.477,141.015,140.884,141.6C140.337,142.125,140.048,142.755,140.018,143.49C140.018,143.55,140.033,143.61,140.033,143.67L140.033,147.525C140.033,147.9,139.926,148.185,139.729,148.38C139.531,148.575,139.288,148.68,138.999,148.68C138.71,148.68,138.467,148.575,138.27,148.38C138.072,148.185,137.966,147.885,137.966,147.495L137.966,143.655C137.981,142.29,138.467,141.135,139.44,140.175C140.367,139.26,141.568,138.765,143.027,138.69Z" fill="rgb(117,117,117)" stroke="none" stroke-width="1" stroke-miterlimit="1"/><path id="eGJ5d2TNuIU171" d="M149.609,138.69C151.038,138.765,152.208,139.26,153.12,140.175C154.093,141.135,154.579,142.29,154.594,143.655L154.594,147.51C154.594,147.9,154.488,148.185,154.29,148.395C154.093,148.59,153.85,148.695,153.561,148.695C153.272,148.695,153.029,148.59,152.831,148.395C152.634,148.2,152.527,147.915,152.527,147.54L152.527,143.67C152.527,143.61,152.527,143.55,152.542,143.49C152.497,142.755,152.208,142.125,151.676,141.6C151.083,141.015,150.384,140.73,149.548,140.73L149.502,140.73C148.666,140.73,147.967,141.015,147.374,141.6C146.827,142.125,146.538,142.755,146.508,143.49C146.508,143.55,146.523,143.61,146.523,143.67L146.523,147.525C146.523,147.9,146.417,148.185,146.219,148.38C146.022,148.575,145.778,148.68,145.49,148.68C145.201,148.68,144.958,148.575,144.76,148.38C144.562,148.185,144.456,147.885,144.456,147.495L144.456,143.655C144.471,142.29,144.958,141.135,145.93,140.175C146.842,139.275,148.013,138.78,149.442,138.69L149.609,138.69Z" fill="rgb(117,117,117)" stroke="none" stroke-width="1" stroke-miterlimit="1"/><path id="eGJ5d2TNuIU172" d="M165.265,140.175C166.253,141.15,166.739,142.32,166.739,143.7C166.739,145.08,166.253,146.25,165.265,147.225C164.277,148.2,163.091,148.68,161.693,148.68C160.294,148.68,159.109,148.2,158.121,147.225C157.133,146.25,156.646,145.08,156.646,143.7C156.646,142.32,157.133,141.15,158.121,140.175C159.109,139.2,160.294,138.72,161.693,138.72C163.076,138.72,164.277,139.2,165.265,140.175ZM161.678,140.73C160.842,140.73,160.142,141.015,159.55,141.6C158.957,142.17,158.668,142.875,158.668,143.7C158.668,144.525,158.957,145.215,159.55,145.8C160.142,146.385,160.842,146.67,161.678,146.67C162.514,146.67,163.213,146.385,163.806,145.8C164.383,145.215,164.687,144.525,164.687,143.7C164.687,142.875,164.398,142.185,163.806,141.6C163.228,141.03,162.514,140.73,161.678,140.73Z" fill="rgb(117,117,117)" stroke="none" stroke-width="1" stroke-miterlimit="1"/><path id="eGJ5d2TNuIU173" d="M173.959,138.69C175.388,138.765,176.558,139.26,177.47,140.175C178.443,141.135,178.93,142.29,178.945,143.655L178.945,147.51C178.945,147.9,178.838,148.185,178.641,148.395C178.443,148.59,178.2,148.695,177.911,148.695C177.622,148.695,177.379,148.59,177.182,148.395C176.984,148.2,176.878,147.915,176.878,147.54L176.878,143.67C176.878,143.61,176.878,143.55,176.893,143.49C176.847,142.755,176.558,142.125,176.026,141.6C175.434,141.015,174.734,140.73,173.898,140.73L173.853,140.73C173.017,140.73,172.318,141.015,171.725,141.6C171.178,142.125,170.889,142.755,170.858,143.49C170.858,143.55,170.874,143.61,170.874,143.67L170.874,147.525C170.874,147.9,170.767,148.185,170.57,148.38C170.372,148.575,170.129,148.68,169.84,148.68C169.551,148.68,169.308,148.575,169.11,148.38C168.913,148.185,168.806,147.885,168.806,147.495L168.806,143.655C168.822,142.29,169.308,141.135,170.281,140.175C171.193,139.275,172.363,138.78,173.792,138.69L173.959,138.69Z" fill="rgb(117,117,117)" stroke="none" stroke-width="1" stroke-miterlimit="1"/><path id="eGJ5d2TNuIU174" d="M107.87,138.69L180.13,138.69" fill="none" stroke="rgb(117,117,117)" stroke-width="0.3" stroke-miterlimit="1"/><path id="eGJ5d2TNuIU175" d="M107.87,148.695L178.686,148.695" fill="none" stroke="rgb(117,117,117)" stroke-width="0.3" stroke-miterlimit="1"/><path id="eGJ5d2TNuIU176" d="M108.979,137.895L108.979,150.72" fill="none" stroke="rgb(117,117,117)" stroke-width="0.1" stroke-miterlimit="1"/><path id="eGJ5d2TNuIU177" d="M117.917,137.28L117.917,150.105" fill="none" stroke="rgb(117,117,117)" stroke-width="0.2" stroke-miterlimit="1"/><path id="eGJ5d2TNuIU178" d="M131.475,137.895L131.475,150.72" fill="none" stroke="rgb(117,117,117)" stroke-width="0.2" stroke-miterlimit="1"/><path id="eGJ5d2TNuIU179" d="M137.57,137.28L137.57,150.12" fill="none" stroke="rgb(117,117,117)" stroke-width="0.1" stroke-miterlimit="1"/><path id="eGJ5d2TNuIU180" d="M137.966,137.43L137.966,150.27" fill="none" stroke="rgb(117,117,117)" stroke-width="0.1" stroke-miterlimit="1"/><path id="eGJ5d2TNuIU181" d="M144.061,137.67L144.061,150.51" fill="none" stroke="rgb(117,117,117)" stroke-width="0.1" stroke-miterlimit="1"/><path id="eGJ5d2TNuIU182" d="M144.456,137.535L144.456,150.36" fill="none" stroke="rgb(117,117,117)" stroke-width="0.1" stroke-miterlimit="1"/><path id="eGJ5d2TNuIU183" d="M154.61,137.535L154.61,150.36" fill="none" stroke="rgb(117,117,117)" stroke-width="0.2" stroke-miterlimit="1"/><path id="eGJ5d2TNuIU184" d="M156.631,137.535L156.631,150.36" fill="none" stroke="rgb(117,117,117)" stroke-width="0.1" stroke-miterlimit="1"/><path id="eGJ5d2TNuIU185" d="M168.806,137.895L168.806,150.72" fill="none" stroke="rgb(117,117,117)" stroke-width="0.2" stroke-miterlimit="1"/><path id="eGJ5d2TNuIU186" d="M178.96,137.28L178.96,150.105" fill="none" stroke="rgb(117,117,117)" stroke-width="0.1" stroke-miterlimit="1"/><path id="eGJ5d2TNuIU187" d="M180.13,140.73L108.918,140.73" fill="none" stroke="rgb(117,117,117)" stroke-width="0.2" stroke-miterlimit="1"/><path id="eGJ5d2TNuIU188" d="M179.553,146.67L108.326,146.67" fill="none" stroke="rgb(117,117,117)" stroke-width="0.1" stroke-miterlimit="1"/><script><![CDATA[!function(t,n){"object"==typeof exports&&"undefined"!=typeof module?module.exports=n():"function"==typeof define&&define.amd?define(n):(t="undefined"!=typeof globalThis?globalThis:t||self).__SVGATOR_PLAYER__=n()}(this,(function(){"use strict";function t(n){return(t="function"==typeof Symbol&&"symbol"==typeof Symbol.iterator?function(t){return typeof t}:function(t){return t&&"function"==typeof Symbol&&t.constructor===Symbol&&t!==Symbol.prototype?"symbol":typeof t})(n)}function n(t,n){if(!(t instanceof n))throw new TypeError("Cannot call a class as a function")}function r(t,n){for(var r=0;r<n.length;r++){var e=n[r];e.enumerable=e.enumerable||!1,e.configurable=!0,"value"in e&&(e.writable=!0),Object.defineProperty(t,e.key,e)}}function e(t,n,e){return n&&r(t.prototype,n),e&&r(t,e),t}function i(t){return(i=Object.setPrototypeOf?Object.getPrototypeOf:function(t){return t.__proto__||Object.getPrototypeOf(t)})(t)}function o(t,n){return(o=Object.setPrototypeOf||function(t,n){return t.__proto__=n,t})(t,n)}function u(t,n){return!n||"object"!=typeof n&&"function"!=typeof n?function(t){if(void 0===t)throw new ReferenceError("this hasn't been initialised - super() hasn't been called");return t}(t):n}function a(t){var n=function(){if("undefined"==typeof Reflect||!Reflect.construct)return!1;if(Reflect.construct.sham)return!1;if("function"==typeof Proxy)return!0;try{return Boolean.prototype.valueOf.call(Reflect.construct(Boolean,[],(function(){}))),!0}catch(t){return!1}}();return function(){var r,e=i(t);if(n){var o=i(this).constructor;r=Reflect.construct(e,arguments,o)}else r=e.apply(this,arguments);return u(this,r)}}function l(t,n,r){return(l="undefined"!=typeof Reflect&&Reflect.get?Reflect.get:function(t,n,r){var e=function(t,n){for(;!Object.prototype.hasOwnProperty.call(t,n)&&null!==(t=i(t)););return t}(t,n);if(e){var o=Object.getOwnPropertyDescriptor(e,n);return o.get?o.get.call(r):o.value}})(t,n,r||t)}var f=s(Math.pow(10,-6));function s(t){var n=arguments.length>1&&void 0!==arguments[1]?arguments[1]:6;if(Number.isInteger(t))return t;var r=Math.pow(10,n);return Math.round((+t+Number.EPSILON)*r)/r}function c(t,n){var r=arguments.length>2&&void 0!==arguments[2]?arguments[2]:f;return Math.abs(t-n)<r}var h=Math.PI/180;function v(t){return t}function y(t,n,r){var e=1-r;return 3*r*e*(t*e+n*r)+r*r*r}function d(){var t=arguments.length>0&&void 0!==arguments[0]?arguments[0]:0,n=arguments.length>1&&void 0!==arguments[1]?arguments[1]:0,r=arguments.length>2&&void 0!==arguments[2]?arguments[2]:1,e=arguments.length>3&&void 0!==arguments[3]?arguments[3]:1;return t<0||t>1||r<0||r>1?null:c(t,n)&&c(r,e)?v:function(i){if(i<=0)return t>0?i*n/t:0===n&&r>0?i*e/r:0;if(i>=1)return r<1?1+(i-1)*(e-1)/(r-1):1===r&&t<1?1+(i-1)*(n-1)/(t-1):1;for(var o,u=0,a=1;u<a;){var l=y(t,r,o=(u+a)/2);if(c(i,l))break;l<i?u=o:a=o}return y(n,e,o)}}function g(){return 1}function p(t){return 1===t?1:0}function m(){var t=arguments.length>0&&void 0!==arguments[0]?arguments[0]:1,n=arguments.length>1&&void 0!==arguments[1]?arguments[1]:0;if(1===t){if(0===n)return p;if(1===n)return g}var r=1/t;return function(t){return t>=1?1:(t+=n*r)-t%r}}function b(t,n,r){return t>=.5?r:n}function w(t,n,r){return 0===t||n===r?n:t*(r-n)+n}function x(t,n,r){var e=w(t,n,r);return e<=0?0:e}function k(t,n,r){return 0===t?n:1===t?r:{x:w(t,n.x,r.x),y:w(t,n.y,r.y)}}function A(t,n,r){var e=function(t,n,r){return Math.round(w(t,n,r))}(t,n,r);return e<=0?0:e>=255?255:e}function _(t,n,r){return 0===t?n:1===t?r:{r:A(t,n.r,r.r),g:A(t,n.g,r.g),b:A(t,n.b,r.b),a:w(t,null==n.a?1:n.a,null==r.a?1:r.a)}}function S(t,n,r){if(0===t)return n;if(1===t)return r;var e=n.length;if(e!==r.length)return b(t,n,r);for(var i=[],o=0;o<e;o++)i.push(_(t,n[o],r[o]));return i}function O(t,n){for(var r=[],e=0;e<t;e++)r.push(n);return r}function M(t,n){if(--n<=0)return t;var r=(t=Object.assign([],t)).length;do{for(var e=0;e<r;e++)t.push(t[e])}while(--n>0);return t}var j,P=function(){function t(r){n(this,t),this.list=r,this.length=r.length}return e(t,[{key:"setAttribute",value:function(t,n){for(var r=this.list,e=0;e<this.length;e++)r[e].setAttribute(t,n)}},{key:"removeAttribute",value:function(t){for(var n=this.list,r=0;r<this.length;r++)n[r].removeAttribute(t)}},{key:"style",value:function(t,n){for(var r=this.list,e=0;e<this.length;e++)r[e].style[t]=n}}]),t}(),B=/-./g,E=function(t,n){return n.toUpperCase()};function F(t){return"function"==typeof t?t:b}function I(t){return t?"function"==typeof t?t:Array.isArray(t)?function(t){var n=arguments.length>1&&void 0!==arguments[1]?arguments[1]:v;if(!Array.isArray(t))return n;switch(t.length){case 1:return m(t[0])||n;case 2:return m(t[0],t[1])||n;case 4:return d(t[0],t[1],t[2],t[3])||n}return n}(t,null):function(t,n){var r=arguments.length>2&&void 0!==arguments[2]?arguments[2]:v;switch(t){case"linear":return v;case"steps":return m(n.steps||1,n.jump||0)||r;case"bezier":case"cubic-bezier":return d(n.x1||0,n.y1||0,n.x2||0,n.y2||0)||r}return r}(t.type,t.value,null):null}function R(t,n,r){var e=arguments.length>3&&void 0!==arguments[3]&&arguments[3],i=n.length-1;if(t<=n[0].t)return e?[0,0,n[0].v]:n[0].v;if(t>=n[i].t)return e?[i,1,n[i].v]:n[i].v;var o,u=n[0],a=null;for(o=1;o<=i;o++){if(!(t>n[o].t)){a=n[o];break}u=n[o]}return null==a?e?[i,1,n[i].v]:n[i].v:u.t===a.t?e?[o,1,a.v]:a.v:(t=(t-u.t)/(a.t-u.t),u.e&&(t=u.e(t)),e?[o,t,r(t,u.v,a.v)]:r(t,u.v,a.v))}function q(t,n){var r=arguments.length>2&&void 0!==arguments[2]?arguments[2]:null;return t&&t.length?"function"!=typeof n?null:("function"!=typeof r&&(r=null),function(e){var i=R(e,t,n);return null!=i&&r&&(i=r(i)),i}):null}function T(t,n){return t.t-n.t}function N(n,r,e,i,o){var u,a="@"===e[0],l="#"===e[0],f=j[e],s=b;switch(a?(u=e.substr(1),e=u.replace(B,E)):l&&(e=e.substr(1)),t(f)){case"function":if(s=f(i,o,R,I,e,a,r,n),l)return s;break;case"string":s=q(i,F(f));break;case"object":if((s=q(i,F(f.i),f.f))&&"function"==typeof f.u)return f.u(r,s,e,a,n)}return s?function(t,n,r){var e=arguments.length>3&&void 0!==arguments[3]&&arguments[3];if(e)return t instanceof P?function(e){return t.style(n,r(e))}:function(e){return t.style[n]=r(e)};if(Array.isArray(n)){var i=n.length;return function(e){var o=r(e);if(null==o)for(var u=0;u<i;u++)t[u].removeAttribute(n);else for(var a=0;a<i;a++)t[a].setAttribute(n,o)}}return function(e){var i=r(e);null==i?t.removeAttribute(n):t.setAttribute(n,i)}}(r,e,s,a):null}function C(n,r,e,i){if(!i||"object"!==t(i))return null;var o=null,u=null;return Array.isArray(i)?u=function(t){if(!t||!t.length)return null;for(var n=0;n<t.length;n++)t[n].e&&(t[n].e=I(t[n].e));return t.sort(T)}(i):(u=i.keys,o=i.data||null),u?N(n,r,e,u,o):null}function z(t,n,r){if(!r)return null;var e=[];for(var i in r)if(r.hasOwnProperty(i)){var o=C(t,n,i,r[i]);o&&e.push(o)}return e.length?e:null}function L(t,n){if(!n.duration||n.duration<0)return null;var r=function(t,n){if(!n)return null;var r=[];if(Array.isArray(n))for(var e=n.length,i=0;i<e;i++){var o=n[i];if(2===o.length){var u=null;if("string"==typeof o[0])u=t.getElementById(o[0]);else if(Array.isArray(o[0])){u=[];for(var a=0;a<o[0].length;a++)if("string"==typeof o[0][a]){var l=t.getElementById(o[0][a]);l&&u.push(l)}u=u.length?1===u.length?u[0]:new P(u):null}if(u){var f=z(t,u,o[1]);f&&(r=r.concat(f))}}}else for(var s in n)if(n.hasOwnProperty(s)){var c=t.getElementById(s);if(c){var h=z(t,c,n[s]);h&&(r=r.concat(h))}}return r.length?r:null}(t,n.elements);return r?function(t,n){var r=arguments.length>2&&void 0!==arguments[2]?arguments[2]:1/0,e=arguments.length>3&&void 0!==arguments[3]?arguments[3]:1,i=arguments.length>4&&void 0!==arguments[4]&&arguments[4],o=arguments.length>5&&void 0!==arguments[5]?arguments[5]:1,u=t.length,a=e>0?n:0;i&&r%2==0&&(a=n-a);var l=null;return function(f,s){var c=f%n,h=1+(f-c)/n;s*=e,i&&h%2==0&&(s=-s);var v=!1;if(h>r)c=a,v=!0,-1===o&&(c=e>0?0:n);else if(s<0&&(c=n-c),c===l)return!1;l=c;for(var y=0;y<u;y++)t[y](c);return v}}(r,n.duration,n.iterations||1/0,n.direction||1,!!n.alternate,n.fill||1):null}var D=function(){function t(r,e){var i=arguments.length>2&&void 0!==arguments[2]?arguments[2]:{};n(this,t),this._id=0,this._running=!1,this._rollingBack=!1,this._animations=r,this.duration=e.duration,this.alternate=e.alternate,this.fill=e.fill,this.iterations=e.iterations,this.direction=i.direction||1,this.speed=i.speed||1,this.fps=i.fps||100,this.offset=i.offset||0,this.rollbackStartOffset=0}return e(t,[{key:"_rollback",value:function(){var t=this,n=1/0,r=null;this.rollbackStartOffset=this.offset,this._rollingBack||(this._rollingBack=!0,this._running=!0);this._id=window.requestAnimationFrame((function e(i){if(t._rollingBack){null==r&&(r=i);var o=i-r,u=t.rollbackStartOffset-o,a=Math.round(u*t.speed);if(a>t.duration&&n!=1/0){var l=!!t.alternate&&a/t.duration%2>1,f=a%t.duration;a=(f+=l?t.duration:0)||t.duration}var s=t.fps?1e3/t.fps:0,c=Math.max(0,a);if(c<n-s){t.offset=c,n=c;for(var h=t._animations,v=h.length,y=0;y<v;y++)h[y](c,t.direction)}var d=!1;if(t.iterations>0&&-1===t.fill){var g=t.iterations*t.duration,p=g==a;a=p?0:a,t.offset=p?0:t.offset,d=a>g}a>0&&t.offset>=a&&!d?t._id=window.requestAnimationFrame(e):t.stop()}}))}},{key:"_start",value:function(){var t=this,n=arguments.length>0&&void 0!==arguments[0]?arguments[0]:0,r=-1/0,e=null,i={},o=function o(u){t._running=!0,null==e&&(e=u);var a=Math.round((u-e+n)*t.speed),l=t.fps?1e3/t.fps:0;if(a>r+l&&!t._rollingBack){t.offset=a,r=a;for(var f=t._animations,s=f.length,c=0,h=0;h<s;h++)i[h]?c++:(i[h]=f[h](a,t.direction),i[h]&&c++);if(c===s)return void t._stop()}t._id=window.requestAnimationFrame(o)};this._id=window.requestAnimationFrame(o)}},{key:"_stop",value:function(){this._id&&window.cancelAnimationFrame(this._id),this._running=!1,this._rollingBack=!1}},{key:"play",value:function(){!this._rollingBack&&this._running||(this._rollingBack=!1,this.rollbackStartOffset>this.duration&&(this.offset=this.rollbackStartOffset-(this.rollbackStartOffset-this.offset)%this.duration,this.rollbackStartOffset=0),this._start(this.offset))}},{key:"stop",value:function(){this._stop(),this.offset=0,this.rollbackStartOffset=0;var t=this.direction,n=this._animations;window.requestAnimationFrame((function(){for(var r=0;r<n.length;r++)n[r](0,t)}))}},{key:"reachedToEnd",value:function(){return this.iterations>0&&this.offset>=this.iterations*this.duration}},{key:"restart",value:function(){this._stop(),this.offset=0,this._start()}},{key:"pause",value:function(){this._stop()}},{key:"reverse",value:function(){this.direction=-this.direction}}],[{key:"build",value:function(n,r){return(n=function(t,n){if(j=n,!t||!t.root||!Array.isArray(t.animations))return null;for(var r=document.getElementsByTagName("svg"),e=!1,i=0;i<r.length;i++)if(r[i].id===t.root&&!r[i].svgatorAnimation){(e=r[i]).svgatorAnimation=!0;break}if(!e)return null;var o=t.animations.map((function(t){return L(e,t)})).filter((function(t){return!!t}));return o.length?{element:e,animations:o,animationSettings:t.animationSettings,options:t.options||void 0}:null}(n,r))?{el:n.element,options:n.options||{},player:new t(n.animations,n.animationSettings,n.options)}:null}}]),t}();function Q(t){return s(t)+""}function U(t){var n=arguments.length>1&&void 0!==arguments[1]?arguments[1]:" ";return t&&t.length?t.map(Q).join(n):""}function V(t){return t?null==t.a||t.a>=1?"rgb("+t.r+","+t.g+","+t.b+")":"rgba("+t.r+","+t.g+","+t.b+","+t.a+")":"transparent"}!function(){for(var t=0,n=["ms","moz","webkit","o"],r=0;r<n.length&&!window.requestAnimationFrame;++r)window.requestAnimationFrame=window[n[r]+"RequestAnimationFrame"],window.cancelAnimationFrame=window[n[r]+"CancelAnimationFrame"]||window[n[r]+"CancelRequestAnimationFrame"];window.requestAnimationFrame||(window.requestAnimationFrame=function(n){var r=Date.now(),e=Math.max(0,16-(r-t)),i=window.setTimeout((function(){n(r+e)}),e);return t=r+e,i},window.cancelAnimationFrame=window.clearTimeout)}();var G={f:null,i:function(t,n,r){return 0===t?n:1===t?r:{x:x(t,n.x,r.x),y:x(t,n.y,r.y)}},u:function(t,n){return function(r){var e=n(r);t.setAttribute("rx",Q(e.x)),t.setAttribute("ry",Q(e.y))}}},H={f:null,i:function(t,n,r){return 0===t?n:1===t?r:{width:x(t,n.width,r.width),height:x(t,n.height,r.height)}},u:function(t,n){return function(r){var e=n(r);t.setAttribute("width",Q(e.width)),t.setAttribute("height",Q(e.height))}}},Y=Math.sin,Z=Math.cos,J=Math.acos,K=Math.asin,W=Math.tan,X=Math.atan2,$=Math.PI/180,tt=180/Math.PI,nt=Math.sqrt,rt=function(){function t(){var r=arguments.length>0&&void 0!==arguments[0]?arguments[0]:1,e=arguments.length>1&&void 0!==arguments[1]?arguments[1]:0,i=arguments.length>2&&void 0!==arguments[2]?arguments[2]:0,o=arguments.length>3&&void 0!==arguments[3]?arguments[3]:1,u=arguments.length>4&&void 0!==arguments[4]?arguments[4]:0,a=arguments.length>5&&void 0!==arguments[5]?arguments[5]:0;n(this,t),this.m=[r,e,i,o,u,a],this.i=null,this.w=null,this.s=null}return e(t,[{key:"determinant",get:function(){var t=this.m;return t[0]*t[3]-t[1]*t[2]}},{key:"isIdentity",get:function(){if(null===this.i){var t=this.m;this.i=1===t[0]&&0===t[1]&&0===t[2]&&1===t[3]&&0===t[4]&&0===t[5]}return this.i}},{key:"point",value:function(t,n){var r=this.m;return{x:r[0]*t+r[2]*n+r[4],y:r[1]*t+r[3]*n+r[5]}}},{key:"translateSelf",value:function(){var t=arguments.length>0&&void 0!==arguments[0]?arguments[0]:0,n=arguments.length>1&&void 0!==arguments[1]?arguments[1]:0;if(!t&&!n)return this;var r=this.m;return r[4]+=r[0]*t+r[2]*n,r[5]+=r[1]*t+r[3]*n,this.w=this.s=this.i=null,this}},{key:"rotateSelf",value:function(){var t=arguments.length>0&&void 0!==arguments[0]?arguments[0]:0;if(t%=360){var n=Y(t*=$),r=Z(t),e=this.m,i=e[0],o=e[1];e[0]=i*r+e[2]*n,e[1]=o*r+e[3]*n,e[2]=e[2]*r-i*n,e[3]=e[3]*r-o*n,this.w=this.s=this.i=null}return this}},{key:"scaleSelf",value:function(){var t=arguments.length>0&&void 0!==arguments[0]?arguments[0]:1,n=arguments.length>1&&void 0!==arguments[1]?arguments[1]:1;if(1!==t||1!==n){var r=this.m;r[0]*=t,r[1]*=t,r[2]*=n,r[3]*=n,this.w=this.s=this.i=null}return this}},{key:"skewSelf",value:function(t,n){if(n%=360,(t%=360)||n){var r=this.m,e=r[0],i=r[1],o=r[2],u=r[3];t&&(t=W(t*$),r[2]+=e*t,r[3]+=i*t),n&&(n=W(n*$),r[0]+=o*n,r[1]+=u*n),this.w=this.s=this.i=null}return this}},{key:"resetSelf",value:function(){var t=arguments.length>0&&void 0!==arguments[0]?arguments[0]:1,n=arguments.length>1&&void 0!==arguments[1]?arguments[1]:0,r=arguments.length>2&&void 0!==arguments[2]?arguments[2]:0,e=arguments.length>3&&void 0!==arguments[3]?arguments[3]:1,i=arguments.length>4&&void 0!==arguments[4]?arguments[4]:0,o=arguments.length>5&&void 0!==arguments[5]?arguments[5]:0,u=this.m;return u[0]=t,u[1]=n,u[2]=r,u[3]=e,u[4]=i,u[5]=o,this.w=this.s=this.i=null,this}},{key:"recomposeSelf",value:function(){var t=arguments.length>0&&void 0!==arguments[0]?arguments[0]:null,n=arguments.length>1&&void 0!==arguments[1]?arguments[1]:null,r=arguments.length>2&&void 0!==arguments[2]?arguments[2]:null,e=arguments.length>3&&void 0!==arguments[3]?arguments[3]:null,i=arguments.length>4&&void 0!==arguments[4]?arguments[4]:null;return this.isIdentity||this.resetSelf(),t&&(t.x||t.y)&&this.translateSelf(t.x,t.y),n&&this.rotateSelf(n),r&&(r.x&&this.skewSelf(r.x,0),r.y&&this.skewSelf(0,r.y)),!e||1===e.x&&1===e.y||this.scaleSelf(e.x,e.y),i&&(i.x||i.y)&&this.translateSelf(i.x,i.y),this}},{key:"decompose",value:function(){var t=arguments.length>0&&void 0!==arguments[0]?arguments[0]:0,n=arguments.length>1&&void 0!==arguments[1]?arguments[1]:0,r=this.m,e=r[0]*r[0]+r[1]*r[1],i=[[r[0],r[1]],[r[2],r[3]]],o=nt(e);if(0===o)return{origin:{x:s(r[4]),y:s(r[5])},translate:{x:s(t),y:s(n)},scale:{x:0,y:0},skew:{x:0,y:0},rotate:0};i[0][0]/=o,i[0][1]/=o;var u=r[0]*r[3]-r[1]*r[2]<0;u&&(o=-o);var a=i[0][0]*i[1][0]+i[0][1]*i[1][1];i[1][0]-=i[0][0]*a,i[1][1]-=i[0][1]*a;var l=nt(i[1][0]*i[1][0]+i[1][1]*i[1][1]);if(0===l)return{origin:{x:s(r[4]),y:s(r[5])},translate:{x:s(t),y:s(n)},scale:{x:s(o),y:0},skew:{x:0,y:0},rotate:0};i[1][0]/=l,i[1][1]/=l,a/=l;var f=0;return i[1][1]<0?(f=J(i[1][1])*tt,i[0][1]<0&&(f=360-f)):f=K(i[0][1])*tt,u&&(f=-f),a=X(a,nt(i[0][0]*i[0][0]+i[0][1]*i[0][1]))*tt,u&&(a=-a),{origin:{x:s(r[4]),y:s(r[5])},translate:{x:s(t),y:s(n)},scale:{x:s(o),y:s(l)},skew:{x:s(a),y:0},rotate:s(f)}}},{key:"toString",value:function(){return null===this.s&&(this.s="matrix("+this.m.map((function(t){return s(t)})).join(" ")+")"),this.s}}]),t}();Object.freeze({M:2,L:2,Z:0,H:1,V:1,C:6,Q:4,T:2,S:4,A:7});var et={},it=null;function ot(n){var r=function(){if(it)return it;if("object"!==("undefined"==typeof document?"undefined":t(document))||!document.createElementNS)return{};var n=document.createElementNS("http://www.w3.org/2000/svg","svg");return n&&n.style?(n.style.position="absolute",n.style.opacity="0.01",n.style.zIndex="-9999",n.style.left="-9999px",n.style.width="1px",n.style.height="1px",it={svg:n}):{}}().svg;if(!r)return function(t){return null};var e=document.createElementNS(r.namespaceURI,"path");e.setAttributeNS(null,"d",n),e.setAttributeNS(null,"fill","none"),e.setAttributeNS(null,"stroke","none"),r.appendChild(e);var i=e.getTotalLength();return function(t){var n=e.getPointAtLength(i*t);return{x:n.x,y:n.y}}}function ut(t){return et[t]?et[t]:et[t]=ot(t)}function at(t,n,r,e){if(!t||!e)return!1;var i=["M",t.x,t.y];if(n&&r&&(i.push("C"),i.push(n.x),i.push(n.y),i.push(r.x),i.push(r.y)),n?!r:r){var o=n||r;i.push("Q"),i.push(o.x),i.push(o.y)}return n||r||i.push("L"),i.push(e.x),i.push(e.y),i.join(" ")}function lt(t,n,r,e){var i=arguments.length>4&&void 0!==arguments[4]?arguments[4]:1,o=at(t,n,r,e),u=ut(o);try{return u(i)}catch(t){return null}}function ft(t,n,r,e){var i=1-e;return i*i*t+2*i*e*n+e*e*r}function st(t,n,r,e){return 2*(1-e)*(n-t)+2*e*(r-n)}function ct(t,n,r,e){var i=arguments.length>4&&void 0!==arguments[4]&&arguments[4],o=lt(t,n,null,r,e);return o||(o={x:ft(t.x,n.x,r.x,e),y:ft(t.y,n.y,r.y,e)}),i&&(o.a=ht(t,n,r,e)),o}function ht(t,n,r,e){return Math.atan2(st(t.y,n.y,r.y,e),st(t.x,n.x,r.x,e))}function vt(t,n,r,e,i){var o=i*i;return i*o*(e-t+3*(n-r))+3*o*(t+r-2*n)+3*i*(n-t)+t}function yt(t,n,r,e,i){var o=1-i;return 3*(o*o*(n-t)+2*o*i*(r-n)+i*i*(e-r))}function dt(t,n,r,e,i){var o=arguments.length>5&&void 0!==arguments[5]&&arguments[5],u=lt(t,n,r,e,i);return u||(u={x:vt(t.x,n.x,r.x,e.x,i),y:vt(t.y,n.y,r.y,e.y,i)}),o&&(u.a=gt(t,n,r,e,i)),u}function gt(t,n,r,e,i){return Math.atan2(yt(t.y,n.y,r.y,e.y,i),yt(t.x,n.x,r.x,e.x,i))}function pt(t,n,r){return t+(n-t)*r}function mt(t,n,r){var e=arguments.length>3&&void 0!==arguments[3]&&arguments[3],i={x:pt(t.x,n.x,r),y:pt(t.y,n.y,r)};return e&&(i.a=bt(t,n)),i}function bt(t,n){return Math.atan2(n.y-t.y,n.x-t.x)}function wt(t,n,r){var e=arguments.length>3&&void 0!==arguments[3]&&arguments[3];if(kt(n)){if(At(r))return ct(n,r.start,r,t,e)}else if(kt(r)){if(n.end)return ct(n,n.end,r,t,e)}else{if(n.end)return r.start?dt(n,n.end,r.start,r,t,e):ct(n,n.end,r,t,e);if(r.start)return ct(n,r.start,r,t,e)}return mt(n,r,t,e)}function xt(t,n,r){var e=wt(t,n,r,!0);return e.a=function(t){var n=arguments.length>1&&void 0!==arguments[1]&&arguments[1];return n?t+Math.PI:t}(e.a)/h,e}function kt(t){return!t.type||"corner"===t.type}function At(t){return null!=t.start&&!kt(t)}var _t=new rt;var St={f:Q,i:w},Ot={f:Q,i:function(t,n,r){var e=w(t,n,r);return e<=0?0:e>=1?1:e}};function Mt(t,n,r,e,i,o,u,a){return n=function(t,n,r){for(var e,i,o,u=t.length-1,a={},l=0;l<=u;l++)(e=t[l]).e&&(e.e=n(e.e)),e.v&&"g"===(i=e.v).t&&i.r&&(o=r.getElementById(i.r))&&(a[i.r]=o.querySelectorAll("stop"));return a}(t,e,a),function(e){var i,o=r(e,t,jt);return o?"c"===o.t?V(o.v):"g"===o.t?(n[o.r]&&function(t,n){for(var r=0,e=t.length;r<e;r++)t[r].setAttribute("stop-color",V(n[r]))}(n[o.r],o.v),(i=o.r)?"url(#"+i+")":"none"):"none":"none"}}function jt(t,n,r){if(0===t)return n;if(1===t)return r;if(n&&r){var e=n.t;if(e===r.t)switch(n.t){case"c":return{t:e,v:_(t,n.v,r.v)};case"g":if(n.r===r.r)return{t:e,v:S(t,n.v,r.v),r:n.r}}}return b(t,n,r)}var Pt={fill:Mt,"fill-opacity":Ot,stroke:Mt,"stroke-opacity":Ot,"stroke-width":St,"stroke-dashoffset":{f:Q,i:w},"stroke-dasharray":{f:function(t){var n=arguments.length>1&&void 0!==arguments[1]?arguments[1]:" ";return t&&t.length>0&&(t=t.map((function(t){return s(t,4)}))),U(t,n)},i:function(t,n,r){var e,i,o,u=n.length,a=r.length;if(u!==a)if(0===u)n=O(u=a,0);else if(0===a)a=u,r=O(u,0);else{var l=(o=(e=u)*(i=a)/function(t,n){for(var r;n;)r=n,n=t%n,t=r;return t||1}(e,i))<0?-o:o;n=M(n,Math.floor(l/u)),r=M(r,Math.floor(l/a)),u=a=l}for(var f=[],c=0;c<u;c++)f.push(s(x(t,n[c],r[c])));return f}},opacity:Ot,transform:function(n,r,e,i){if(!(n=function(n,r){if(!n||"object"!==t(n))return null;var e=!1;for(var i in n)n.hasOwnProperty(i)&&(n[i]&&n[i].length?(n[i].forEach((function(t){t.e&&(t.e=r(t.e))})),e=!0):delete n[i]);return e?n:null}(n,i)))return null;var o=function(t,i,o){var u=arguments.length>3&&void 0!==arguments[3]?arguments[3]:null;return n[t]?e(i,n[t],o):r&&r[t]?r[t]:u};return r&&r.a&&n.o?function(t){var r=e(t,n.o,xt);return _t.recomposeSelf(r,o("r",t,w,0)+r.a,o("k",t,k),o("s",t,k),o("t",t,k)).toString()}:function(t){return _t.recomposeSelf(o("o",t,wt,null),o("r",t,w,0),o("k",t,k),o("s",t,k),o("t",t,k)).toString()}},r:St,"#size":H,"#radius":G,_:function(t,n){if(Array.isArray(t))for(var r=0;r<t.length;r++)this[t[r]]=n;else this[t]=n}};return function(t){!function(t,n){if("function"!=typeof n&&null!==n)throw new TypeError("Super expression must either be null or a function");t.prototype=Object.create(n&&n.prototype,{constructor:{value:t,writable:!0,configurable:!0}}),n&&o(t,n)}(u,t);var r=a(u);function u(){return n(this,u),r.apply(this,arguments)}return e(u,null,[{key:"build",value:function(t){var n=l(i(u),"build",this).call(this,t,Pt);if(!n)return null;n.el,n.options;var r=n.player;return function(t,n,r){t.play()}(r),r}}]),u}(D)}));
__SVGATOR_PLAYER__.build({"root":"eGJ5d2TNuIU1","animations":[{"duration":3000,"direction":1,"iterations":0,"fill":1,"alternate":false,"speed":1,"elements":{"eGJ5d2TNuIU47":{"transform":{"data":{"o":{"x":46.520002,"y":142.220001,"type":"corner"},"t":{"x":-46.520002,"y":-142.220001}},"keys":{"r":[{"t":0,"v":0},{"t":3000,"v":180}]}}},"eGJ5d2TNuIU48":{"transform":{"data":{"o":{"x":76.685001,"y":159.190002,"type":"corner"},"t":{"x":-76.685001,"y":-159.190002}},"keys":{"r":[{"t":0,"v":0},{"t":3000,"v":-180}]}}}}}],"options":{"start":"load","hover":null,"click":null,"scroll":null,"font":"embed","exportedIds":"unique","svgFormat":"animated","title":"engineer 1"},"animationSettings":{"duration":3000,"direction":1,"iterations":0,"fill":1,"alternate":false,"speed":1}})]]></script></svg>